<?xml version="1.0" standalone="no"?>
<!DOCTYPE svg PUBLIC "-//W3C//DTD SVG 1.1//EN" "http://www.w3.org/Graphics/SVG/1.1/DTD/svg11.dtd" >
<svg>
<metadata>
Created by FontForge 20120731 at Mon Nov 30 07:52:49 2015
 By www-data
Copyright (c) 2015 by Liliane Mendoza Secco. All rights reserved.
</metadata>
<defs>
<font id="IpanemaSecco" horiz-adv-x="833" >
  <font-face 
    font-family="Ipanema Secco "
    font-weight="400"
    font-stretch="normal"
    units-per-em="1000"
    panose-1="0 0 0 0 0 0 0 0 0 0"
    ascent="750"
    descent="-250"
    x-height="496"
    cap-height="755"
    bbox="-35 -253 995 865.514"
    underline-thickness="50"
    underline-position="-50"
    unicode-range="U+0020-2122"
  />
    <missing-glyph />
    <glyph glyph-name="space" unicode=" " horiz-adv-x="340" 
 />
    <glyph glyph-name="E" unicode="E" horiz-adv-x="501" 
d="M303 47q29 0 54.5 11t45 29.5t31 42.5t11.5 50q15 -34 8.5 -66t-26.5 -57t-51 -41t-67 -18q-29 0 -56.5 7t-55.5 14.5t-55 12.5t-54 0q-29 -7 -46 -19q-9 -6 -15 -12q10 26 24 47.5t37 32.5v533q-15 -3 -26.5 -8t-19.5 -10q-9 -6 -15 -12q10 26 24 47t37 35h3
q31 12 58 7.5t51.5 -14t49.5 -20t53 -10.5q29 0 54.5 11t45 29.5t31 43t11.5 50.5q5 -11 7 -24.5t2 -25.5q0 -28 -11.5 -52t-31 -42t-46 -28.5t-56.5 -10.5q-19 2 -42 6q-20 3 -46 8.5t-56 14.5l2 -255q13 -6 36.5 -10.5t39.5 -4.5q22 0 42 8.5t35 23t24 33t9 39.5
q13 -26 8.5 -51t-21 -45t-41.5 -33t-52 -14q-13 -1 -26 0q-11 1 -26 2.5t-30 5.5l1 -229q6 -2 24 -7t39.5 -10.5t42 -10t31.5 -4.5z" />
    <glyph glyph-name="F" unicode="F" horiz-adv-x="477" 
d="M164 382q12 -6 32 -11t36 -5q22 0 41.5 8.5t34.5 23t23.5 33.5t8.5 39q10 -26 5.5 -51t-19 -45t-38 -32.5t-52.5 -13.5l-22 2q-10 1 -23 2.5t-28 5.5l2 -340h-82v604q-15 -3 -26.5 -8t-19.5 -10q-10 -6 -17 -12q9 34 30 55t48 29.5t57.5 4t58.5 -20.5q16 -8 35.5 -15.5
t41.5 -7.5q28 0 53 11t44 29.5t30 42.5t11 51q13 -34 7.5 -66t-24.5 -57.5t-49 -41.5t-67 -18q-16 2 -37 6q-18 3 -43 8.5t-54 14.5z" />
    <glyph glyph-name="G" unicode="G" horiz-adv-x="666" 
d="M459 302q21 0 41 -7.5t39.5 -15.5t39.5 -13.5t42 -1.5v-264h-189q-75 0 -141 27t-114.5 73.5t-77 109.5t-28.5 135t28.5 136t77 111.5t114.5 75t141 27.5q74 0 141 -29v-84q-30 32 -68 44t-82 12q-46 0 -93 -25.5t-85.5 -67.5t-62.5 -96.5t-24 -112.5q0 -59 24 -112
t62.5 -93.5t85.5 -64.5t93 -24q34 0 65 6.5t57 23.5v149q-30 6 -75 21q-33 11 -58.5 8t-42.5 -11q-20 -9 -35 -24q14 38 47.5 62.5t77.5 24.5z" />
    <glyph glyph-name="H" unicode="H" horiz-adv-x="644" 
d="M568 64q5 -14 -1.5 -29t-17.5 -26q-3 -3 -14 -8.5t-16 -0.5q-8 0 -12.5 2.5t-8 5.5t-8 5t-12.5 1q-6 -1 -11 -2.5t-8 -3.5q-4 -3 -6 -5q6 17 25 25v258q-20 -17 -44 -26.5t-51 -9.5q-26 0 -50 7t-48.5 14.5t-49.5 13.5t-52 4v-251q6 20 8.5 21.5t2.5 -6t-3 -19t-8 -17.5
q-3 -4 -8.5 -11t-27.5 -7q-7 0 -9.5 2.5t-4.5 5t-5 5t-12 2.5q-11 0 -19 -6q-4 -3 -5 -5q4 10 9 17t15 10v672l67 -2v-346q31 12 55 8.5t45.5 -12t43.5 -18t51 -9.5t54.5 12.5t45.5 33.5v331v1l65 1v-672q6 7 15.5 16t9.5 18z" />
    <glyph glyph-name="I" unicode="I" horiz-adv-x="471" 
d="M271 42q24 0 44 9.5t35 25.5t23.5 38t10.5 46q8 -27 5 -55.5t-16.5 -51.5t-37 -38.5t-56.5 -17.5q-26 0 -52.5 8t-55.5 18q-27 9 -47.5 6.5t-34.5 -9.5q-17 -8 -29 -20q14 40 50 60.5t79 10.5l-5 543q-29 14 -64.5 9.5t-59.5 -28.5q11 32 38.5 53t62.5 21q15 0 29 -5.5
t27.5 -11.5t27 -11.5t29.5 -5.5q22 0 42 10t35 26.5t24 38t9 44.5q3 -9 5 -21t2 -23q0 -23 -9.5 -46t-26 -40.5t-39 -27t-47.5 -4.5l2 -551v0z" />
    <glyph glyph-name="J" unicode="J" horiz-adv-x="442" 
d="M296 581q0 -107 -0.5 -197.5t-0.5 -156.5v-140q0 -18 -8 -33.5t-22.5 -27t-33.5 -18.5t-40 -7q-13 0 -30 3t-33 8.5t-29.5 12.5t-20.5 16h1q4 -3 13.5 -4t20 -1t20 0.5t15.5 0.5q30 0 46 14t16 40q-1 74 -1 158q-1 71 -1 160.5v183.5q-24 6 -45 13.5t-41.5 10t-41 -3.5
t-43.5 -28q14 35 45 57.5t71 22.5q18 0 33.5 -6t31 -12.5t31.5 -12.5t34 -6q25 0 48 10.5t40.5 28.5t27.5 41.5t10 49.5q4 -11 6 -24t2 -24q0 -26 -9 -49.5t-25.5 -40.5t-38.5 -27.5t-48 -11.5z" />
    <glyph glyph-name="K" unicode="K" horiz-adv-x="585" 
d="M526 10q21 0 38 9l-1 -1q-12 -15 -32 -24t-43 -9q-19 0 -36 6t-29.5 16t-19.5 24t-7 29q1 50 3 90q2 34 3 62.5t1 30.5q0 18 -8.5 33.5t-23 27.5t-34 18.5t-41.5 6.5q-29 0 -61.5 -18.5t-51.5 -43.5q-6 -12 -9.5 -22.5t-5 -33t-1.5 -65v-119.5q3 4 5 10.5t3.5 10.5t2.5 2
t1 -14q0 -17 -11 -30q-14 -17 -36 -17q-5 0 -12 2q-12 1 -33 9q-3 0 -4 1q-11 2 -19 1t-13 -3q-6 -3 -11 -8q11 27 43 29v61v170v428q-9 1 -15 -1t-11 -4q-5 -3 -9 -7q7 19 17 24t21.5 3t24.5 -6.5t26 -4.5q20 0 32 14h3l-1 -19l-2 -268l167 281l71 1l-163 -312q19 8 39 13
t39 5q28 0 54.5 -11t47.5 -28.5t33.5 -40t13.5 -44.5v-211q0 -22 14 -37.5t41 -15.5z" />
    <glyph glyph-name="L" unicode="L" horiz-adv-x="562" 
d="M524 207q5 -12 7 -27.5t2 -29.5q0 -31 -11 -58t-30 -47.5t-44.5 -32t-54.5 -11.5q-15 1 -34 5q-17 3 -42 9.5t-58 18.5q-46 16 -78.5 4t-58.5 -33v698h93l-6 -612q11 4 19 6t20 2q19 0 36 -6.5t33.5 -15t33.5 -15t37 -6.5q28 0 52.5 12.5t43 33.5t29.5 48t11 57z" />
    <glyph glyph-name="M" unicode="M" horiz-adv-x="788" 
d="M748 66q2 -5 3 -9.5t1 -9.5q0 -32 -28 -45q-4 -2 -10 -4q-4 -1 -12 -1h-3h-4.5t-4.5 1q-7 2 -16 3.5t-21 6.5q-2 1 -4 1t-4 1q-10 2 -17.5 -0.5t-12.5 -4.5q-6 -4 -11 -7q10 28 41 31v471l-196 -500h-91l-203 500l-3 -475q20 15 20 41q2 -5 3 -9.5t1 -9.5q0 -14 -6.5 -25
t-17.5 -18q-8 -5 -14 -6q-4 -1 -13 -1h-3q-5 0 -9 1q-6 2 -15 3.5t-21 6.5q-2 0 -2.5 0.5t-2.5 0.5q-20 4 -33 -3q-7 -4 -11 -8q5 14 17 22.5t27 8.5v671h80l248 -600l246 600h79l-1 -678q24 16 24 44z" />
    <glyph glyph-name="N" unicode="N" horiz-adv-x="614" 
d="M576 730q6 -16 0.5 -32t-20.5 -25v-672h-92l-278 557v-530q17 15 17 35q3 -8 3 -17q0 -24 -20 -37q-8 -7 -16 -8q-5 0 -8.5 -0.5t-8.5 0.5q-11 2 -22 6.5t-22 4.5q-17 3 -28 -3q-6 -3 -10 -7q5 11 15 19t23 9l-2 668l90 1l284 -564v544q-9 2 -15.5 0t-11.5 -4
q-5 -3 -9 -7q8 26 36 29h5q11 0 21 -5q5 -3 11 -5.5t14 -2.5q13 0 24 8q20 15 20 38z" />
    <glyph glyph-name="O" unicode="O" horiz-adv-x="607" 
d="M577 352q0 -54 -12.5 -104t-34.5 -92t-52.5 -74.5t-66.5 -52.5q-51 -28 -108 -28t-108 28q-36 20 -66.5 52.5t-52.5 74.5t-34.5 92t-12.5 104q0 70 20 133.5t56 112t86.5 77.5t111.5 29q64 0 114.5 -32t86 -82.5t54.5 -113.5t19 -124zM303 48q47 0 80.5 31t54.5 77t31 98
t10 93q0 40 -8.5 90.5t-29 95.5t-54.5 77.5t-84 36.5q-48 -3 -81.5 -34t-54.5 -75.5t-30.5 -95.5t-9.5 -95q0 -38 9 -88.5t29.5 -97t54 -79t83.5 -34.5z" />
    <glyph glyph-name="P" unicode="P" horiz-adv-x="491" 
d="M224 700q48 0 89.5 -16t73 -44t49.5 -65.5t18 -79.5t-18 -79t-49.5 -65t-73 -44t-89.5 -16q-20 0 -37.5 2.5t-34.5 7.5v-270q13 13 13 31q3 -8 3 -17q0 -20 -16 -34q-7 -5 -14 -8q-8 -3 -15 -3h-4q-6 0 -13 3q-13 2 -27 7h-1q-11 3 -19 2t-13 -3q-6 -3 -11 -8
q10 28 41 28h2v671h63h83zM229 325q30 0 56 14t45.5 38t30.5 55.5t11 65.5t-11 65.5t-30.5 55.5t-45.5 38.5t-56 14.5q-21 0 -40.5 -3.5t-36.5 -13.5v-313q17 -10 36.5 -13.5t40.5 -3.5z" />
    <glyph glyph-name="Q" unicode="Q" horiz-adv-x="656" 
d="M617 175q4 -12 6.5 -27t2.5 -29q0 -30 -11.5 -56.5t-31 -46t-46 -31t-56.5 -11.5q-15 1 -36 5q-18 3 -44 9.5t-60 17.5q-35 11 -61.5 8.5t-44.5 -10.5q-21 -10 -37 -25q19 50 66 74q-51 13 -92 44.5t-69.5 74t-43.5 94.5t-15 108q0 70 20.5 130t56.5 103.5t85.5 68
t106.5 24.5h1q56 0 105 -27t85 -72t57 -104t21 -123q0 -48 -12.5 -97.5t-38 -92.5t-63 -76.5t-86.5 -48.5q12 -3 23 -8t22 -10.5t22.5 -9t25.5 -3.5q29 0 54.5 12t45 32t31 47t11.5 56zM141 369q0 -37 9 -84.5t29.5 -89.5t53 -71.5t80.5 -31.5q45 0 78 28t54 70t31 90.5
t10 88.5q0 37 -9 84.5t-29.5 89.5t-53.5 71.5t-81 31.5q-46 0 -78.5 -28t-52.5 -70t-30 -90.5t-11 -88.5z" />
    <glyph glyph-name="R" unicode="R" horiz-adv-x="562" 
d="M500 18q20 2 34 11v-1q-11 -15 -28.5 -24.5t-39.5 -11.5q-17 -1 -33.5 4t-29 14t-21 21.5t-9.5 27.5q-2 47 -3 86q-1 16 -1.5 32t-1 28.5t-0.5 20.5v9q-2 31 -15 48.5t-33.5 26t-45.5 10.5t-51 2q-37 0 -68 9v-308q14 14 14 32q2 -10 2 -17q0 -21 -16 -34
q-13 -10 -28 -10q-5 1 -11 2l-12.5 2.5t-18.5 5.5q-8 2 -11 2q-8 1 -14 -1t-10 -4l-8 -6q8 22 32 27v678h149q47 0 88.5 -14.5t72 -39.5t48.5 -59.5t18 -73.5q0 -23 -7 -47t-20 -46t-31.5 -39t-40.5 -25q30 -12 52 -35t25 -53l14 -203q1 -21 17.5 -35t41.5 -12zM227 353
q29 0 55 13.5t45 36t30 51.5t11 61t-11 61.5t-30 52t-45 36t-55 13.5q-20 0 -38.5 -3.5t-34.5 -11.5v-294q31 -16 73 -16z" />
    <glyph glyph-name="S" unicode="S" horiz-adv-x="558" 
d="M473 311q64 -78 53 -151.5t-104 -124.5q-45 -20 -90.5 -30t-102.5 -1q-30 5 -65 15.5t-74 36.5q-6 4 -12 7t-11 8l13 65q61 -49 120 -74q25 -11 52 -17.5t53.5 -5t51 12.5t44.5 36q7 13 13.5 31t8.5 37t-1.5 36.5t-16.5 30.5q-27 27 -63.5 50t-75 45.5t-74.5 45t-62.5 49
t-39.5 58t-4 70.5q15 66 58 103t98.5 49.5t118 4.5t116.5 -30l-10 -57q-11 20 -32.5 34.5t-49 21t-57 5.5t-55 -10.5t-45 -28t-26.5 -46.5q-8 -38 12.5 -78.5t71.5 -71.5q41 -25 71.5 -43t53 -32.5t37.5 -26.5t25 -24z" />
    <glyph glyph-name="T" unicode="T" horiz-adv-x="497" 
d="M463 829q5 -14 7.5 -32t2.5 -35q0 -35 -12.5 -66t-35 -55t-53 -38t-67.5 -15v-589h-91v608l-62 20q-39 14 -69 10t-51 -14q-25 -11 -42 -30q17 48 57 78.5t91 30.5q41 0 76 -20q19 -11 41.5 -20t47.5 -9q33 0 62 14.5t50.5 38.5t34.5 56t13 67z" />
    <glyph glyph-name="U" unicode="U" horiz-adv-x="695" 
d="M503 711q30 0 55.5 -12t43.5 -32.5t27 -47.5t6 -57l-7 -326q-2 -23 -7 -48q-5 -21 -15 -47.5t-30 -51.5q-13 -16 -29.5 -31.5t-39 -28t-50.5 -20.5t-63 -8q-2 -1 -7.5 -0.5t-12.5 0.5h-17q-53 6 -94.5 37t-63.5 77q-6 12 -10 27q-4 13 -7 30.5t-3 38.5v364q0 18 -7 35
t-20 29.5t-30 20t-37 7.5q-31 0 -54 -17v3q1 0 1 2l-2 -2v2q18 26 46.5 42.5t63.5 16.5q42 0 75 -23t48 -60q11 -25 11 -53q-1 -12 -2 -43t-2 -71t-1.5 -84.5t0 -83t2.5 -67.5t6 -38q9 -21 23.5 -43t32.5 -40.5t40 -30.5t46 -12q20 0 42 9t40.5 24t30.5 33.5t12 36.5v19.5
t-0.5 47t-0.5 64.5v74q-1 88 -1 199q0 20 -7.5 37.5t-20.5 30t-30.5 20t-36.5 7.5q-30 0 -55 -17l1 3q18 26 46.5 42t63.5 16z" />
    <glyph glyph-name="W" unicode="W" 
d="M719 707q25 0 46 -10.5t36 -29t23.5 -43t8.5 -51.5v-339q-2 -22 -7 -47q-5 -21 -14.5 -46.5t-27.5 -50.5q-23 -32 -62 -57t-102 -31q-2 -1 -7 -0.5t-11 0.5h-15q-48 7 -85 37.5t-57 76.5q-22 -51 -65 -82t-98 -31q-37 0 -69.5 15t-57 41.5t-39.5 61.5t-16 75v375
q0 20 -6.5 37.5t-18 30t-27 20t-33.5 7.5q-14 0 -26.5 -4.5t-23.5 -12.5l1 2q16 26 42 42t57 16q25 0 46 -10t36 -27.5t23 -41.5t8 -51q-1 -90 -1 -161v-167q0 -32 11 -59.5t30 -48.5t44.5 -33t54.5 -12q36 0 65.5 19t47.5 50v6t-0.5 17t-1 38t-1 69t-0.5 111v163
q0 17 -7 36q-10 25 -31 40.5t-47 15.5q-27 0 -49 -17v3q1 0 1 2l-2 -2v2q17 26 42.5 42t57.5 16q38 0 67.5 -22.5t43.5 -58.5q5 -12 6.5 -25t1.5 -28v-325q0 -17 -0.5 -31.5t4.5 -28.5q16 -41 50.5 -66.5t77.5 -25.5q37 0 66.5 19t46.5 51v19t-0.5 46.5t-0.5 64.5v73
q-1 87 -1 198q0 19 -7 36.5t-18.5 30t-27 20t-33.5 7.5q-27 0 -49 -17v3q17 26 43 42t57 16z" />
    <glyph glyph-name="V" unicode="V" horiz-adv-x="708" 
d="M404 38q26 24 26 60q5 -15 5 -30q0 -32 -21 -54.5t-51 -22.5q-8 1 -18 3q-9 2 -21 5t-29 9t-30 4.5t-22 -5.5q-11 -5 -19 -13q6 17 20 30t32 16l-223 661h118l184 -612l171 612h91l-213 -663v0z" />
    <glyph glyph-name="X" unicode="X" horiz-adv-x="511" 
d="M482 69q4 -11 5 -22.5t-2.5 -21.5t-12 -16.5t-23.5 -7.5q-8 0 -18 4t-20 6t-19 0.5t-15 -11.5q2 6 6.5 12.5t9.5 10.5l-131 265l-100 -258q9 -4 14.5 -12.5t9.5 -17.5l-16 8q-15 7 -33 5q-10 0 -19 -3t-17.5 -5.5t-16.5 -3.5t-16 2q-11 2 -16.5 9t-7.5 16.5t-2 20t2 19.5
q0 -7 6 -16t13.5 -16t14.5 -10t9 3l126 319l-151 352h73l127 -292l126 292h74l-152 -355l147 -316q7 7 16 18.5t9 21.5z" />
    <glyph glyph-name="Y" unicode="Y" horiz-adv-x="452" 
d="M257 48q16 3 25 7.5t13 10.5t4.5 13.5t0.5 16.5q2 -5 5.5 -14t3.5 -16q0 -11 -1.5 -19t-8.5 -16q-10 -12 -32.5 -18.5t-35.5 -6.5q-6 0 -13 1q-6 1 -15 3.5t-21 7.5t-21.5 3.5t-15.5 -5.5q-3 -2 -5.5 -3.5t-4.5 -3.5t-3 -4q2 3 2.5 6t2.5 6q6 11 18 19.5t41 10.5l1 272
l-161 381h79l112 -300l112 300h79l-162 -384l1 -268v0z" />
    <glyph glyph-name="Z" unicode="Z" horiz-adv-x="592" 
d="M566 256q6 -15 9 -34.5t3 -36.5q0 -38 -14.5 -72t-40 -59.5t-59 -40t-72.5 -14.5q-20 1 -46 6q-23 4 -56 12.5t-77 22.5q-45 14 -79 10.5t-57 -13.5q-27 -12 -48 -32q1 4 3.5 8.5t8.5 16.5t18 34t32 60t50 94t73 137q-5 -2 -11 -2h-11q-34 0 -61 19t-38 49q12 -12 28 -19
q14 -6 34 -8t46 6q13 4 23.5 7t20.5 6l112 212h-358v74l504 1l-160 -282q32 -11 52 -39.5t20 -63.5q0 -11 -1.5 -22t-5.5 -20q0 19 -6.5 37t-18 32.5t-27 24.5t-33.5 14l-140 -261q23 5 48.5 -1.5t51.5 -18.5q22 -11 47.5 -21.5t54.5 -10.5q37 0 70 15.5t57.5 41.5t39 60
t14.5 71z" />
    <glyph glyph-name="Ccedilla" unicode="&#xc7;" 
d="M400 638q-42 1 -78.5 -23t-63.5 -64.5t-43 -94t-16 -111.5t16 -111.5t43.5 -94.5t64 -65.5t78.5 -24.5q22 0 42.5 3t41.5 14q14 7 24 14.5t21 20.5v-71q-10 -5 -18.5 -8.5t-19.5 -6.5q-2 -9 -9 -29t-18 -47q-9 -20 -8.5 -36t4.5 -27q4 -13 13 -23q-23 11 -36.5 33.5
t-10.5 48.5q1 11 5.5 22.5t9.5 19.5q10 13 16 30q-13 -2 -25 -4t-25 -2q-67 0 -126 27.5t-103 74.5t-69.5 110.5t-25.5 135.5t25.5 135t69.5 110t102.5 74t125.5 27q35 0 64.5 -7t58.5 -21v-83q-26 32 -59 42.5t-71 11.5z" />
    <glyph glyph-name="a" unicode="a" horiz-adv-x="576" 
d="M502 513q28 0 38 -27q-5 4 -10 7q-11 6 -27 3v-497h-75v33q-48 -25 -103 -25q-48 0 -91 19.5t-74.5 52.5t-50 77.5t-18.5 95.5t18.5 96t50 78t74.5 52.5t91 19.5q55 0 103 -25v41q15 -13 31 -13q11 0 20.5 6t22.5 6zM428 382v23q-20 30 -48 41.5t-60 11.5
q-30 0 -56.5 -17.5t-46 -46.5t-31 -66.5t-11.5 -78.5t11.5 -79t31 -67t46 -46t56.5 -17q32 0 60 10.5t48 40.5v291z" />
    <glyph glyph-name="b" unicode="b" horiz-adv-x="548" 
d="M299 483q47 0 88.5 -18.5t72 -51t48.5 -75.5t18 -92t-18 -92t-48.5 -75.5t-72 -51t-88.5 -18.5q-53 0 -99 23v-31h-72v740q-15 0 -23 -5q-4 -3 -7 -5q4 11 14 18t23 7q5 0 9.5 -1t9.5 -3q10 -7 22 -7q13 0 24 9v-18v-277q45 24 99 24zM305 40q29 0 54.5 17t44.5 45
t30 64.5t11 76.5q0 39 -11 75.5t-30 64.5t-44.5 45t-54.5 17q-32 0 -58.5 -11t-46.5 -40v-304q20 -29 46.5 -39.5t58.5 -10.5z" />
    <glyph glyph-name="c" unicode="c" horiz-adv-x="423" 
d="M281 33q31 0 58 7.5t48 29.5v-51q-48 -20 -100 -20q-53 0 -100 19.5t-81.5 53.5t-54.5 79.5t-20 97.5t20 97.5t54.5 79.5t81.5 53.5t100 19.5q27 0 52 -5.5t48 -15.5v-60q-21 23 -48 31.5t-58 8.5q-33 0 -62 -17.5t-50.5 -47t-34 -68t-12.5 -80.5t12.5 -80t34 -67.5
t50.5 -47t62 -17.5z" />
    <glyph glyph-name="d" unicode="d" horiz-adv-x="590" 
d="M475 749q13 0 23 -7.5t14 -18.5q-4 4 -10 7q-5 2 -12.5 3t-16.5 -1v-734h-72v32q-23 -11 -47.5 -17.5t-51.5 -6.5q-47 0 -88 18.5t-72 51t-48.5 75.5t-17.5 92t17.5 92t48.5 75.5t72 51t88 18.5q27 0 51.5 -6.5t47.5 -17.5l5 294q11 -13 28 -13q6 0 11.5 2.5t10.5 4.5
q4 2 8 3t9 2h2zM401 390q-20 29 -46.5 40t-57.5 11q-29 0 -54.5 -16.5t-44.5 -44.5t-30 -64.5t-11 -75.5q0 -40 11 -76.5t30 -64.5t44.5 -44.5t54.5 -16.5q31 0 57.5 10t46.5 39v303z" />
    <glyph glyph-name="e" unicode="e" horiz-adv-x="594" 
d="M168 249v-4q0 -30 7.5 -66.5t24 -68.5t43 -54t64.5 -23q25 1 46 12t37 29t27 40.5t17 45.5h76q-11 -31 -30 -60t-45 -51.5t-58.5 -36t-69.5 -13.5q-47 0 -86.5 21.5t-68.5 56.5t-45.5 80t-16.5 92q0 42 15 86.5t43 81t68 59.5t91 23h1q48 0 87.5 -20.5t68 -55t44 -80
t15.5 -94.5h-355zM307 458q-30 0 -52.5 -15t-39 -38t-26.5 -52t-16 -56l269 3q-5 25 -15 52.5t-26.5 50.5t-39.5 38.5t-54 16.5z" />
    <glyph glyph-name="f" unicode="f" horiz-adv-x="413" 
d="M319 712q-38 0 -55 -21t-22.5 -51.5t-3.5 -64.5t2 -60h65v-35h-65v-59.5t-0.5 -82t-0.5 -126.5v-193q17 12 17 34q5 -14 1 -28t-18 -24v-1h-1q-11 -8 -24.5 -6t-27.5 6q-14 5 -27.5 6t-25.5 -11q8 23 31 26v459h-70v35h70q0 31 -2 71t6 75.5t31.5 60t73.5 24.5
q29 0 52.5 -12.5t38.5 -33.5v-2q-20 14 -45 14z" />
    <glyph glyph-name="g" unicode="g" horiz-adv-x="546" 
d="M491 514q24 -2 31 -23l-8 6q-8 5 -23 3v-616q0 -28 -10.5 -52t-28.5 -42q-17 -17 -39.5 -27t-48.5 -10q-30 0 -55.5 14t-42.5 36.5t-24 51t0 57.5q0 -22 12.5 -41.5t31 -34t40.5 -22t42 -5.5t34.5 16t19.5 42v169v38q-23 -11 -46.5 -17.5t-49.5 -6.5q-45 0 -85 18
t-69.5 49t-46.5 73t-17 89t17 88.5t46.5 72.5t69.5 49t85 18q52 0 96 -23v31h4q9 -11 25 -11q10 0 18 5t20 5h2zM321 88q30 0 56 10t45 39v21v271q-19 28 -45 38t-56 10q-28 0 -52.5 -16t-43 -43t-29 -62.5t-10.5 -73.5t10.5 -73t29 -62t43 -43t52.5 -16z" />
    <glyph glyph-name="h" unicode="h" horiz-adv-x="631" 
d="M570 35q24 0 41 13l-1 -2q-14 -20 -35 -32t-47 -12q-42 0 -71 28.5t-29 70.5q1 67 3 121q1 23 1.5 45t1 39.5t1 29t0.5 12.5q0 24 -9 45t-25 36.5t-37 24.5t-45 9q-23 0 -42 -8t-33.5 -22t-24 -33t-11.5 -41v-358h-77v733q-9 2 -15.5 0t-11.5 -4q-5 -3 -9 -6
q5 12 15 19.5t24 7.5q12 0 21.5 -6t22.5 -6q16 0 26 10v-19v-301v-1q14 48 53 77.5t90 29.5q31 0 58 -11.5t47.5 -31t33 -46.5t13.5 -57v-283q0 -29 21 -50t50 -21z" />
    <glyph glyph-name="i" unicode="i" horiz-adv-x="316" 
d="M191 564q0 -19 -9 -32.5t-23 -13.5t-23.5 13.5t-9.5 32.5t9.5 32t23.5 13t23 -13t9 -32zM208 61q0 -18 -14 -30v426h-71v-425q-23 -3 -31 -25q4 4 10 7q5 2 12.5 3t17.5 -2q20 -7 28 -8q5 -1 10 -1q17 0 28.5 11.5t11.5 28.5q0 7 -2 15z" />
    <glyph glyph-name="j" unicode="j" horiz-adv-x="421" 
d="M283 465l-75 1q0 -127 -0.5 -237.5t-0.5 -193.5q-1 -98 -1 -179q0 -31 -23 -53t-56 -22q-25 0 -45 14l1 -2q15 -21 38.5 -33.5t52.5 -12.5q23 0 43 8t35 22t23.5 33t8.5 41q-1 76 -1 171v443zM279 554q0 -20 -10 -34t-24 -14q-15 0 -25 14t-10 34t10 34.5t25 14.5
q14 0 24 -14.5t10 -34.5z" />
    <glyph glyph-name="k" unicode="k" horiz-adv-x="465" 
d="M423 21q15 0 29 7v-1q-10 -11 -25.5 -17.5t-33.5 -6.5q-30 0 -51 16t-21 39v66q0 25 0.5 45.5t0.5 22.5q0 26 -22 45t-57 19q-23 0 -48 -14t-40 -32q-5 -9 -8 -17t-4 -26t-1 -52.5v-96.5q-11 -12 -27 -12q-9 0 -18 3t-18 5t-18 1t-18 -8q8 20 33 22l1 542h68v-270
l125 201h68l-130 -201q26 11 59 11q22 0 42 -9t35.5 -23t25 -31t10.5 -34v-155q0 -16 11 -27.5t32 -11.5z" />
    <glyph glyph-name="l" unicode="l" horiz-adv-x="214" 
d="M141 60q3 -8 3 -17q0 -17 -12.5 -29.5t-30.5 -12.5q-4 1 -10 2q-5 1 -13 2.5t-18 5.5q-10 3 -17.5 1.5t-12.5 -3.5q-6 -3 -11 -7q4 11 13 18t20 9v719h75v-720q14 14 14 32z" />
    <glyph glyph-name="m" unicode="m" 
d="M773 28q22 0 39 12l-1 -2q-13 -19 -33.5 -30t-44.5 -11q-20 0 -37 7.5t-30.5 20t-21 29.5t-7.5 37v233q0 22 -7.5 42t-21 35t-32 24t-41.5 9q-29 0 -52 -13.5t-37 -36.5q0 -2 0.5 -8.5t0.5 -34t0.5 -84.5t0.5 -160q0 -28 19.5 -48t47.5 -20q21 0 39 13l-1 -2
q-13 -19 -33 -30.5t-45 -11.5q-20 0 -37 7.5t-29.5 20.5t-20 30t-7.5 37v233q0 46 -29 78t-75 32q-43 0 -72 -28t-33 -70v-340h-73v492q-9 2 -16 1t-12 -3q-6 -3 -10 -7q5 11 14.5 18.5t22.5 7.5h1q10 0 18 -5q5 -2 10.5 -4.5t12.5 -2.5q17 0 28 13v-18v-87q14 45 50.5 73
t85.5 28q43 0 78 -22.5t52 -59.5q17 36 50.5 58t77.5 22q29 0 55 -10.5t45 -29.5t30.5 -44t12.5 -54v-269q0 -28 20 -47.5t48 -19.5z" />
    <glyph glyph-name="n" unicode="n" horiz-adv-x="623" 
d="M551 32q21 0 38 12v-2q-13 -19 -33.5 -30t-44.5 -11q-20 0 -37 7.5t-29.5 20t-20 29.5t-7.5 36v232q0 45 -28.5 77t-73.5 32q-43 0 -72 -28t-33 -70v-337h-72v488q-17 4 -29 -1q-6 -3 -10 -7q5 11 15 18t24 7q7 0 17 -4q10 -7 22 -7q16 0 29 13v-17v-88h1q13 45 49.5 73
t84.5 28q29 0 54.5 -10.5t45 -29.5t31 -44t12.5 -54v-266q0 -28 19.5 -47.5t47.5 -19.5z" />
    <glyph glyph-name="o" unicode="o" horiz-adv-x="565" 
d="M526 253q0 -46 -16.5 -91t-46 -80.5t-71 -57.5t-91.5 -22q-47 0 -89 21q-30 14 -55 37t-43 53t-28 65.5t-10 74.5q0 46 16.5 91t46 80t71 57t91.5 22q48 0 88.5 -21t70 -55.5t47 -79.5t19.5 -94zM301 36q37 0 64 20.5t45 52t26.5 69t8.5 71.5q0 31 -8 68t-25.5 68.5
t-44.5 53t-66 23.5q-37 0 -64 -21t-45 -52.5t-27 -69t-9 -70.5q0 -32 8 -68.5t25.5 -68t45 -53.5t66.5 -23z" />
    <glyph glyph-name="p" unicode="p" horiz-adv-x="561" 
d="M300 496q47 0 88.5 -18.5t72 -51t48.5 -76t18 -92.5t-18 -92t-48.5 -75.5t-72 -51t-88.5 -18.5q-52 0 -97 24v-295h-75v738q-8 2 -14 0.5t-10 -3.5q-5 -3 -8 -6q8 22 32 25h3q10 0 18 -5l10 -4t11 -2q16 0 27 11h6v-32q45 24 97 24zM305 59q29 0 55 17t45 45t30 64.5
t11 76.5t-11 76.5t-30 64.5t-45 44.5t-55 16.5q-31 0 -56.5 -10t-45.5 -39v-304q20 -29 45.5 -40.5t56.5 -11.5z" />
    <glyph glyph-name="q" unicode="q" horiz-adv-x="534" 
d="M51 253q0 49 18 92.5t48.5 76t72 51t88.5 18.5q27 0 51 -6.5t47 -18.5v34h6q12 -12 26 -12q6 0 11.5 2t9.5 4q10 5 18 5h3q24 -3 32 -25q-4 3 -9 6q-11 6 -24 3v-733h-73v290q-23 -12 -47 -18t-51 -6q-47 0 -88.5 18.5t-72 51t-48.5 75.5t-18 92zM132 257q0 -40 11 -76.5
t30 -64.5t45 -45t55 -17q32 0 57.5 11.5t45.5 40.5v304q-20 29 -45.5 39t-57.5 10q-29 0 -55 -16.5t-45 -44.5t-30 -64.5t-11 -76.5z" />
    <glyph glyph-name="r" unicode="r" horiz-adv-x="485" 
d="M358 500q18 0 32.5 -11.5t25 -27t17.5 -31.5t10 -24q-16 21 -43.5 30.5t-56.5 9.5q-45 0 -73.5 -27.5t-33.5 -71.5v-321q26 12 26 43q3 -8 3 -19q0 -16 -8.5 -28.5t-22.5 -17.5q-8 -4 -19 -4q-5 0 -12 2q-14 2 -36 9q-1 0 -1.5 0.5t-1.5 0.5l-5 1q-19 3 -31 -4
q-6 -4 -11 -8q5 14 21 22.5t31 10.5l4 470h63v-79q13 46 42.5 60.5t79.5 14.5z" />
    <glyph glyph-name="s" unicode="s" horiz-adv-x="542" 
d="M441 223q37 -46 25 -100q-8 -34 -30.5 -59t-52.5 -40.5t-65 -20.5t-69 0q-43 8 -99 43q-5 3 -8.5 5.5t-7.5 4.5l8 35q44 -32 86 -49q18 -7 37.5 -11.5t38.5 -3t36.5 10t31.5 26.5q8 14 9 31t-4 34t-15.5 31.5t-25.5 23.5q-24 17 -60.5 35t-68 41t-51 53.5t-9.5 72.5
q15 62 72 94q57 33 128 21q13 -2 31 -8t42 -17q4 -2 7 -3l-7 -30l-3 3q-15 15 -34 22t-42 11q-21 4 -36.5 3t-32.5 -10q-33 -17 -42 -52q-6 -27 7.5 -51t52.5 -45q123 -67 151 -101z" />
    <glyph glyph-name="t" unicode="t" horiz-adv-x="364" 
d="M294 43q25 0 42 13v-2q-14 -21 -36.5 -33.5t-49.5 -12.5q-21 0 -40.5 8t-34.5 21.5t-24 32.5t-9 40v385q-6 2 -12.5 4t-13.5 5q-24 8 -43 6t-32 -8q-15 -7 -26 -20q11 32 35.5 52t56.5 20q20 0 35 -7v213h78v-238q19 2 35.5 12t28.5 26t19 36t7 41q4 -9 5.5 -20.5
t1.5 -22.5q0 -23 -7 -43.5t-19.5 -36.5t-30 -25.5t-37.5 -10.5v-363q0 -30 20 -51t51 -21z" />
    <glyph glyph-name="u" unicode="u" horiz-adv-x="560" 
d="M530 53q3 -8 3 -16q0 -14 -8 -25q-14 -17 -34.5 -16.5t-41.5 7.5q-5 2 -9.5 2.5t-8.5 0.5v94q-7 -23 -20 -43t-30.5 -35.5t-39.5 -24.5t-46 -9q-29 0 -55 12.5t-45 33t-30.5 47.5t-12.5 56v269q0 28 -20 47.5t-48 19.5q-23 0 -39 -12l1 2q13 19 33 30t45 11
q39 0 65 -26.5t26 -65.5v-231q0 -23 7.5 -49t21.5 -48t32.5 -37t41.5 -15q21 0 41.5 12.5t37 32t27.5 43t14 44.5q0 94 -0.5 147.5t-2 80.5t-3.5 35t-4 12q-9 14 -23 22.5t-31 8.5q-21 0 -37 -12l1 2q12 19 31.5 30.5t42.5 11.5q4 0 7.5 -0.5t8.5 -1.5q29 -5 51.5 -27.5
t22.5 -53.5v-399q14 -5 20.5 7t7.5 26z" />
    <glyph glyph-name="v" unicode="v" horiz-adv-x="503" 
d="M444 500l-153 -500h-66l-175 500h77l135 -444l135 444h47z" />
    <glyph glyph-name="w" unicode="w" horiz-adv-x="739" 
d="M697 64q2 -8 2 -16q0 -14 -8 -25q-11 -16 -32 -16q-5 0 -10 1t-12 2.5t-16 5.5q-8 3 -15 2.5t-12 -2.5v9v17q-28 -17 -58 -28.5t-51 -11.5q-40 0 -72 22.5t-48 57.5q-16 -35 -47.5 -58t-71.5 -23q-27 0 -51 11t-42 29.5t-28.5 43.5t-11.5 53v262q0 27 -18.5 46.5
t-44.5 19.5q-19 0 -36 -12q12 20 31 31t42 11q37 0 60.5 -26.5t23.5 -64.5v-229q0 -22 7.5 -41.5t21 -33.5t32 -22.5t39.5 -8.5q27 0 48 13t35 35q0 2 -0.5 8.5t-1 33.5t-0.5 82.5v155.5q0 28 -18.5 47t-44.5 19q-21 0 -36 -12l1 2q11 18 30 30t42 12q37 0 59.5 -28
t22.5 -66v-227q0 -22 8 -41.5t22 -34t32.5 -23t39.5 -8.5q17 0 40.5 7t43.5 18v79v232q0 21 -9 36q-8 14 -21 22t-29 8q-19 0 -34 -12q13 23 40 32t53 4t42 -24.5t16 -49.5v-8v-18v-38v-68v-107.5v-157.5q2 -1 6 -1q7 0 13 3q11 5 18.5 15.5t7.5 23.5z" />
    <glyph glyph-name="x" unicode="x" horiz-adv-x="486" 
d="M424 0h-84l-100 200l-100 -200h-84l147 247l-147 253h84l100 -200l100 200h82l-140 -253z" />
    <glyph glyph-name="y" unicode="y" horiz-adv-x="453" 
d="M414 500l-155 -380q-6 -46 -14 -95q-7 -43 -15.5 -95.5t-17.5 -106.5q-4 -19 -15 -34.5t-26.5 -25t-35 -13.5t-39.5 0q-25 5 -44 19.5t-29 35.5v2q16 -16 38 -19q29 -5 52.5 10t28.5 43q10 57 20 110q8 45 16.5 92t14.5 78l-155 379h76l112 -306l112 306h76z" />
    <glyph glyph-name="z" unicode="z" horiz-adv-x="551" 
d="M468 184q4 -11 6 -24.5t2 -25.5q0 -28 -10.5 -52t-28.5 -42t-42.5 -28.5t-51.5 -10.5q-14 0 -32 4q-16 3 -40 8.5t-55 16.5q-32 10 -56 8t-41 -10q-19 -9 -34 -23l2.5 5t8 15t20 37.5t38.5 72.5t63.5 120.5t94.5 181.5h-226l-2 63h337l-231 -413q4 1 7.5 1h6.5
q33 0 62 -16q15 -8 33.5 -15t38.5 -7q27 0 50.5 11t41 29.5t28 43t10.5 50.5z" />
    <glyph glyph-name="aacute" unicode="&#xe1;" horiz-adv-x="510" 
d="M231 548q6 12 15.5 29t21 32t25.5 25.5t29 10.5q8 -1 8 -9q-2 -16 -11.5 -31.5t-23.5 -27.5t-31 -20t-33 -9zM426 516q-13 0 -22.5 -6t-20.5 -6q-16 0 -31 13v-41q-48 25 -103 25q-48 0 -91 -19.5t-74.5 -52.5t-50 -78t-18.5 -96t18.5 -95.5t50 -77.5t74.5 -52.5
t91 -19.5q55 0 103 25v-33h75v497q16 3 27 -3q5 -3 10 -7q-10 27 -38 27zM352 94q-20 -30 -48 -40.5t-60 -10.5q-30 0 -56.5 17t-46 46t-31 67t-11.5 79t11.5 78.5t31 66.5t46 46.5t56.5 17.5q32 0 60 -11.5t48 -41.5v-23v-291z" />
    <glyph glyph-name="eacute" unicode="&#xe9;" horiz-adv-x="457" 
d="M214 549q6 12 15.5 29t21 32t25.5 25.5t29 10.5q8 -1 8 -9q-2 -16 -11.5 -31.5t-23.5 -27.5t-31 -20t-33 -9zM434 249q0 49 -15.5 94.5t-44 80t-68 55t-87.5 20.5h-1q-51 0 -91 -23t-68 -59.5t-43 -81t-15 -86.5q0 -47 16.5 -92t45.5 -80t68.5 -56.5t86.5 -21.5
q37 0 69.5 13.5t58.5 36t45 51.5t30 60h-76q-6 -23 -17 -45.5t-27 -40.5t-37 -29t-46 -12q-38 1 -64.5 23t-43 54t-24 68.5t-7.5 66.5v4h355zM218 458q31 -1 54 -16.5t39.5 -38.5t26.5 -50.5t15 -52.5l-269 -3q6 27 16 56t26.5 52t39 38t52.5 15z" />
    <glyph glyph-name="iacute" unicode="&#xed;" horiz-adv-x="247" 
d="M159 53q0 -17 -13 -30v476h-71v-475q-24 -3 -31 -25q4 4 10 7q5 2 12 3t17 -2q9 -4 16.5 -5.5l12.5 -2.5q6 -1 10 -1q17 0 28.5 11.5t11.5 28.5q0 9 -3 15zM103 539q6 12 15.5 29t21 32t25.5 25.5t29 10.5q8 -1 8 -9q-2 -16 -11.5 -31.5t-23.5 -27.5t-31 -20t-33 -9z" />
    <glyph glyph-name="oacute" unicode="&#xf3;" horiz-adv-x="530" 
d="M249 553q6 12 15.5 29t21 32t25.5 25.5t29 10.5q8 -1 8 -9q-2 -21 -15 -39t-29.5 -30t-32 -17.5t-22.5 -1.5zM478 257q-2 49 -19.5 94t-47 79.5t-70 55.5t-88.5 21q-50 0 -91.5 -22t-71 -57t-46 -80t-16.5 -91q0 -39 10 -74.5t28 -65.5t43 -53t55 -37q42 -21 89 -21
q50 0 91.5 22t71 57.5t46 80.5t16.5 91zM253 40q-39 1 -66.5 23t-45 53.5t-25.5 68t-8 68.5q0 33 9 70.5t27 69t45 52.5t64 21q39 -2 66 -23.5t44.5 -53t25.5 -68.5t8 -68q0 -34 -8.5 -71.5t-26.5 -69t-45 -52t-64 -20.5z" />
    <glyph glyph-name="uacute" unicode="&#xfa;" horiz-adv-x="558" 
d="M275 554q6 12 15.5 29t21 32t25.5 25.5t29 10.5q8 -1 8 -9q-2 -16 -11.5 -31.5t-23.5 -27.5t-31 -20t-33 -9zM530 53q-1 -14 -7.5 -26t-20.5 -7v399q0 31 -22.5 53.5t-51.5 27.5q-5 1 -8.5 1.5t-7.5 0.5q-23 0 -42.5 -11.5t-31.5 -30.5l-1 -2q16 12 37 12q17 0 31 -8.5
t23 -22.5q2 -4 4 -12t3.5 -35t2 -80.5t0.5 -147.5q-3 -21 -14 -44.5t-27.5 -43t-37 -32t-41.5 -12.5q-23 0 -41.5 15t-32.5 37t-21.5 48t-7.5 49v231q0 39 -26 65.5t-65 26.5q-25 0 -45 -11t-33 -30l-1 -2q16 12 39 12q28 0 48 -19.5t20 -47.5v-269q1 -29 12.5 -56
t30.5 -47.5t45 -33t55 -12.5q24 0 46 9t39.5 24.5t30.5 35.5t20 43v-94q4 0 8.5 -0.5t9.5 -2.5q21 -7 41.5 -7.5t34.5 16.5q8 11 8 25q0 8 -3 16z" />
    <glyph glyph-name="ccedilla" unicode="&#xe7;" horiz-adv-x="502" 
d="M307 459q-33 0 -62 -17.5t-50.5 -47.5t-34 -68.5t-12.5 -80.5t12.5 -80.5t34 -68t50.5 -47t62 -17.5q17 0 34 2t34 9q11 5 20.5 11t18.5 16v-52q-8 -4 -17 -6.5t-18 -5.5q-2 -6 -6 -19t-13 -33q-7 -14 -6.5 -26t3.5 -20q4 -10 10 -17q-19 8 -29.5 24.5t-8.5 35.5
q1 15 11 28q7 8 12 22q-20 -3 -39 -3q-53 0 -100 19.5t-82 53.5t-55.5 80t-20.5 98t20.5 98t55.5 80t82 53.5t100 19.5t101 -20v-61q-22 23 -49 31.5t-58 8.5z" />
    <glyph glyph-name="one" unicode="1" horiz-adv-x="302" 
d="M268 114q5 -13 5 -30q0 -34 -23.5 -57.5t-57.5 -23.5q-20 0 -39.5 6.5t-39 11t-39.5 2.5t-39 -18q16 38 44.5 45.5t65.5 -5.5v604l-13.5 -9.5t-31 -21t-33 -21t-20.5 -9.5q-8 0 -8 6q0 3 1 7q34 23 60 49t59 50h49l-2 -141v-522q27 5 43.5 26.5t18.5 50.5z" />
    <glyph glyph-name="two" unicode="2" horiz-adv-x="560" 
d="M482 537q0 -30 -11 -64.5t-28.5 -69.5t-40 -70t-45.5 -67q-55 -75 -124 -151q8 -1 23 -8.5t32 -16.5t34.5 -16t30.5 -7q34 0 64.5 14t53 38t36 55.5t13.5 65.5q5 -14 8 -31.5t3 -33.5q0 -35 -13.5 -66.5t-36.5 -54.5t-54 -36.5t-67 -13.5q-17 2 -42 6q-21 4 -51.5 11
t-71.5 21q-41 13 -71.5 9t-52.5 -15q-26 -12 -44 -32q5 14 16 29t22 28q13 15 29 30q17 19 44.5 42t59 50t64.5 59.5t61 70.5t47.5 82.5t24.5 97.5q6 39 -2.5 70.5t-28 54t-47.5 34.5t-61 12q-27 0 -52 -10t-44.5 -27t-34 -40.5t-20.5 -51.5q-2 -11 -7 -17.5t-11 -5.5t-9 8
t-2 17q4 39 22 73t46 59t64 39t75 14q4 0 20.5 -0.5t38.5 -5.5t46.5 -15.5t45.5 -31.5t34.5 -53t13.5 -79z" />
    <glyph glyph-name="three" unicode="3" horiz-adv-x="516" 
d="M423 358q24 -26 39 -57.5t18.5 -65.5t-4 -69t-26.5 -66q-35 -56 -91.5 -78t-119.5 -22q-44 0 -76.5 17t-55 44.5t-36 63t-17.5 73.5q0 16 9.5 26.5t22.5 10.5q13 -1 22 -12t9 -26q0 -13 2 -26q2 -11 4 -25.5t6 -28.5q15 -48 63 -70q23 -9 49.5 -6t52 15.5t49 33.5
t40.5 48q33 54 28.5 104t-37.5 85q-14 14 -31.5 23t-37.5 14l-52 12v16q20 15 40.5 29t36 31.5t24 39.5t4.5 53q-3 29 -19 53t-43 41q-42 25 -91.5 17.5t-86.5 -44.5q-7 -7 -13.5 -10t-11.5 1q-4 3 -2.5 10t6.5 14q34 46 85.5 61.5t102.5 5t92.5 -45t55.5 -87.5
q8 -26 3.5 -57.5t-26.5 -69.5q-1 -2 -6 -8.5t-11 -13t-10 -12.5l-4 -6q11 -7 23 -16t21 -20z" />
    <glyph glyph-name="four" unicode="4" horiz-adv-x="545" 
d="M502 393q5 -14 7.5 -30t2.5 -31q0 -28 -9 -53.5t-25 -45.5t-38 -35t-47 -22v-176h-69v174q-19 3 -51 10.5t-77 21.5q-42 13 -77.5 6.5t-81.5 -34.5q3 5 6 11t12 23t26 48.5t47 88t76 142t112 209.5h77v-461q23 8 43 23.5t34.5 36t23 44.5t8.5 50zM163 275q21 4 41 -0.5
t39.5 -12t39.5 -16.5t41 -14l2 363z" />
    <glyph glyph-name="five" unicode="5" horiz-adv-x="474" 
d="M274 451q37 -10 68.5 -30.5t54 -50t35.5 -65.5t13 -76q0 -46 -18.5 -87.5t-50 -73t-73.5 -50t-90 -18.5q-54 0 -101 24t-85 69q-8 14 -5.5 29.5t14.5 22.5q12 8 27 2.5t23 -19.5q8 -16 21.5 -32.5t30.5 -31t36.5 -23.5t39.5 -10q35 0 62.5 18t46.5 46t29 62.5t10 68.5
q0 47 -20.5 86.5t-55 62.5t-80.5 24t-97 -29v330q37 9 59.5 4.5t40.5 -13t37.5 -17.5t51.5 -9q24 0 44.5 10t36.5 26.5t25 38t9 45.5q11 -29 7 -57t-19.5 -51.5t-41 -38.5t-57.5 -17q-17 0 -33.5 4t-33 9.5t-33 10.5t-33.5 7l-4 -198q54 10 109 -3z" />
    <glyph glyph-name="zero" unicode="0" horiz-adv-x="540" 
d="M488 351q0 -54 -10 -104t-27.5 -92t-42 -75t-54.5 -53q-42 -28 -87 -28t-87 28q-29 20 -53.5 53t-42.5 75t-28 92t-10 104q0 30 5.5 67.5t16.5 77t28.5 76.5t42.5 66.5t56.5 47t71.5 17.5h1q59 0 100 -36t67.5 -89t38.5 -114.5t14 -112.5zM292 49q25 9 46 36t37 67.5
t25 90t9 103.5q0 52 -8.5 101t-23.5 89t-35.5 67.5t-44.5 37.5q-8 2 -15 3t-15 2q-8 -1 -15 -2t-14 -3q-24 -10 -44.5 -37.5t-35.5 -67.5t-23.5 -89t-8.5 -101q0 -54 9 -103.5t24.5 -90t37 -67.5t46.5 -36q12 -3 24 -3q13 0 25 3z" />
    <glyph glyph-name="six" unicode="6" horiz-adv-x="474" 
d="M252 409q40 0 75.5 -16t61.5 -43.5t41 -65t15 -80.5q0 -39 -14.5 -76t-40.5 -65.5t-61 -45.5t-77 -17q-81 0 -131 34.5t-73.5 90.5t-23.5 126t19.5 141t56 136.5t85 111.5t106.5 65.5t121 0.5q-62 0 -112 -31.5t-86 -81t-56.5 -110t-22.5 -118.5q0 5 14.5 12.5t33.5 14.5
t38.5 12t30.5 5zM252 27q27 0 49.5 14t39 38t26 55.5t9.5 66.5q0 27 -7 57t-22 55.5t-38.5 43t-56.5 18.5q-37 -1 -62 -22t-39 -51.5t-19 -66.5t-2 -67q4 -26 13 -50t24 -43.5t36.5 -32t48.5 -15.5z" />
    <glyph glyph-name="seven" unicode="7" horiz-adv-x="560" 
d="M411 376q16 -3 31.5 -5.5t30.5 -1.5t29.5 6t29.5 19q-8 -20 -22.5 -35t-32.5 -24t-39 -11t-42 6l-111 -329h-71l115 354q-24 3 -45 -5.5t-37.5 -24.5t-26 -37t-9.5 -45q-11 30 -5 59t25 51t48 34t63 7l66 202q-28 -6 -56 -4t-56.5 9.5t-57 18.5t-56.5 22q-42 16 -75 15
t-56 -9q-27 -9 -48 -26q22 46 67.5 73t101.5 23q30 -2 55.5 -12t48.5 -21.5t45.5 -20.5t47.5 -9.5t53 11t63 41.5l34 -11l-108 -320v0z" />
    <glyph glyph-name="eight" unicode="8" horiz-adv-x="486" 
d="M318 376q28 -9 54.5 -27t46 -42t31.5 -53.5t12 -61.5q0 -30 -10 -57.5t-27.5 -50.5t-41.5 -41t-53 -29q-41 -15 -86 -15q-46 0 -85 15q-59 22 -96 70t-37 108q0 32 11 61t30.5 53t46.5 41.5t59 27.5q-51 19 -83.5 60t-32.5 93q0 37 16 67.5t42 52.5t60 34t69 12
q33 0 66.5 -11.5t60 -33t43.5 -52t17 -69.5q0 -51 -31.5 -92t-81.5 -60zM124 526q0 -24 8 -49t23.5 -45.5t38 -33.5t50.5 -13q26 0 48 12t38 31.5t25 45t9 52.5q0 25 -8 50t-23.5 44.5t-38 32.5t-50.5 14q-27 0 -48.5 -12t-37 -31.5t-24.5 -45t-10 -52.5zM244 25q30 0 56 14
t44.5 37t29 52.5t10.5 60.5q0 29 -8.5 55.5t-23.5 48.5t-35 37t-44 21q-14 3 -28.5 2.5t-29.5 -2.5q-24 -6 -44 -21t-35 -37t-23.5 -48.5t-8.5 -55.5q0 -30 10 -58.5t28 -52t44 -38t58 -15.5z" />
    <glyph glyph-name="nine" unicode="9" horiz-adv-x="462" 
d="M216 300q-39 0 -74.5 16t-62.5 43t-43.5 63.5t-16.5 77.5q0 39 14.5 75t40 64.5t60.5 45.5t76 17q58 0 97 -17t63.5 -43.5t36.5 -59t16 -63t3.5 -55.5t-1.5 -37q-4 -48 -16 -100t-33.5 -101t-52.5 -92t-71 -74t-90 -46.5t-110 -9.5q128 22 193.5 108t80.5 229
q0 -7 -12.5 -14t-30 -13t-36 -10t-31.5 -4zM210 674q-30 0 -53 -16t-38 -41t-23 -55.5t-8 -58.5q0 -26 7 -55.5t22 -55t38 -43t55 -18.5q34 0 59.5 21t41.5 53q14 29 20 62.5t-1 67.5q-3 21 -11.5 45.5t-23.5 45t-36 34t-49 14.5z" />
    <glyph glyph-name="colon" unicode=":" horiz-adv-x="218" 
d="M154 403q0 -30 -15 -51t-37 -21q-21 0 -36 21t-15 51q0 29 15 50.5t36 21.5q22 0 37 -21.5t15 -50.5zM156 73q0 -29 -15 -50.5t-37 -21.5q-21 0 -36 21.5t-15 50.5q0 30 15 51.5t36 21.5q22 0 37 -21.5t15 -51.5z" />
    <glyph glyph-name="semicolon" unicode=";" horiz-adv-x="214" 
d="M151 395q0 -27 -13.5 -45.5t-32.5 -18.5q-20 0 -33 18.5t-13 45.5q0 26 13 45t33 19q19 0 32.5 -19t13.5 -45zM104 192q-14 -1 -23 -14t-9 -33q0 -13 6 -24.5t15 -17t19.5 -3.5t18.5 16q0 -20 -5.5 -45.5t-17 -46.5t-29.5 -34t-42 -9l-5 -15q22 -5 41.5 0.5t35.5 17.5
t28 29.5t18 37.5q6 17 7 40.5t-4.5 45.5t-18.5 38t-35 17z" />
    <glyph glyph-name="quotesinglbase" unicode="&#x201a;" horiz-adv-x="251" 
d="M119 147q22 -1 35 -17t18.5 -38t4.5 -45.5t-7 -40.5q-6 -20 -18 -37.5t-28 -29.5t-35.5 -17.5t-41.5 -0.5l5 15q24 -4 42 9t29.5 34t17 46.5t5.5 45.5q-8 -14 -18.5 -16t-19.5 3.5t-15 17t-6 24.5q0 20 9 33t23 14z" />
    <glyph glyph-name="quotedblbase" unicode="&#x201e;" 
d="M237 143q22 -1 35 -17t18.5 -38t4.5 -45.5t-7 -40.5q-6 -20 -18 -37.5t-28 -29.5t-35.5 -17.5t-41.5 -0.5l5 15q24 -4 42 9t29.5 34t17 46.5t5.5 45.5q-8 -14 -18.5 -16t-19.5 3.5t-15 17t-6 24.5q0 20 9 33t23 14zM363 145q22 -1 35 -17t18.5 -38t4.5 -45.5t-7 -40.5
q-6 -20 -18 -37.5t-28 -29.5t-35.5 -17.5t-41.5 -0.5l5 15q24 -4 42 9t29.5 34t17 46.5t5.5 45.5q-8 -14 -18.5 -16t-19.5 3.5t-15 17t-6 24.5q0 20 9 33t23 14z" />
    <glyph glyph-name="ellipsis" unicode="&#x2026;" horiz-adv-x="712" 
d="M216 73q0 -30 -15 -51t-37 -21q-21 0 -36 21t-15 51q0 29 15 50.5t36 21.5q22 0 37 -21.5t15 -50.5zM386 73q0 -30 -15 -51t-37 -21q-21 0 -36 21t-15 51q0 29 15 50.5t36 21.5q22 0 37 -21.5t15 -50.5zM553 72q0 -30 -15 -51t-37 -21q-21 0 -36 21t-15 51q0 29 15 50.5
t36 21.5q22 0 37 -21.5t15 -50.5z" />
    <glyph glyph-name="comma" unicode="," horiz-adv-x="182" 
d="M93 138q22 -1 35 -17t18.5 -38t4.5 -45.5t-7 -40.5q-6 -20 -18 -37.5t-28 -29.5t-35.5 -17.5t-41.5 -0.5l5 15q24 -4 42 9t29.5 34t17 46.5t5.5 45.5q-8 -14 -18.5 -16t-19.5 3.5t-15 17t-6 24.5q0 20 9 33t23 14z" />
    <glyph glyph-name="quotedblleft" unicode="&#x201c;" horiz-adv-x="332" 
d="M98 423q-19 1 -30 14t-16 31.5t-5 38.5t4 35q8 30 28 51t43 26q13 3 31 0q-2 -5 -2 -7t-1 -4l-1 -2q-11 6 -22.5 -1t-21.5 -19.5t-17 -26.5t-10 -23q-4 -13 -5 -25.5t0 -23.5q8 14 22 16q12 0 20.5 -11t9.5 -28t-7 -28.5t-20 -12.5zM219 426q-17 0 -28 14t-16 33
t-5.5 39.5t2.5 32.5q9 30 28.5 50.5t42.5 26.5q16 3 32 -1l-4 -13q-12 6 -24 -0.5t-21.5 -18.5t-16.5 -26.5t-10 -23.5q-3 -12 -4.5 -25t0.5 -24q8 15 21 15q12 1 20.5 -10.5t9.5 -27.5q1 -14 -5.5 -26t-21.5 -15z" />
    <glyph glyph-name="asciitilde" unicode="~" 
d="M92 168q15 41 51 67t83 26q20 0 38.5 -6.5t36.5 -15t36 -15t39 -6.5q30 0 56 12.5t46 33.5t31.5 48t11.5 57q12 -36 7 -71.5t-24 -64.5t-50.5 -48t-72.5 -22q-15 1 -36 5q-18 3 -45 10t-62 18t-62 8.5t-46 -10.5q-22 -10 -38 -26z" />
    <glyph glyph-name="equal" unicode="=" horiz-adv-x="536" 
d="M38 412q15 41 51 67t83 26q20 0 38.5 -6.5t36.5 -15t36 -15t39 -6.5q30 0 56 12.5t46 33.5t31.5 48t11.5 57q12 -36 7 -71.5t-24 -64.5t-50.5 -48t-72.5 -22q-15 1 -36 5q-18 3 -45 10t-62 18t-62 8.5t-46 -10.5q-22 -10 -38 -26zM50 232q15 41 51 67t83 26
q20 0 38.5 -6.5t36.5 -15t36 -15t39 -6.5q30 0 56 12.5t46 33.5t31.5 48t11.5 57q12 -36 7 -71.5t-24 -64.5t-50.5 -48t-72.5 -22q-15 1 -36 5q-18 3 -45 10t-62 18t-62 8.5t-46 -10.5q-22 -10 -38 -26z" />
    <glyph glyph-name="dollar" unicode="$" horiz-adv-x="334" 
d="M223 300q32 -20 52 -52.5t22 -67t-15 -66t-59 -49.5v-51h-15v45q-26 -9 -53 -9v-36h-15v36q-32 8 -60.5 18.5t-56.5 31.5l8 46q16 -15 34 -28q15 -11 34.5 -21.5t40.5 -15.5v196q-33 12 -55.5 33.5t-34.5 47.5t-12.5 54.5t10.5 54t33.5 46t58.5 31.5v45h15v-42
q13 2 26 1.5t27 -3.5v44h15v-47q14 -3 26 -9t26 -11l-6 -41q-5 11 -18.5 20.5t-27.5 15.5v-217zM140 516q-20 -14 -28.5 -34.5t-7.5 -43.5t10.5 -45t25.5 -39v162zM208 232q-11 11 -24 19t-29 17v-189q14 -2 27.5 1t25.5 12v140zM208 522q-14 2 -26.5 4t-26.5 -3v-181
q12 -8 25 -16t28 -17v213zM223 106q26 51 0 109v-109z" />
    <glyph glyph-name="ampersand" unicode="&#x26;" horiz-adv-x="548" 
d="M469 44q9 0 16 3.5t13.5 8t12.5 8.5t14 4q-8 -39 -13 -44q-24 -25 -53 -25q-19 0 -34.5 7.5t-28.5 19.5t-25 26.5t-23 28.5q-25 -33 -64.5 -57.5t-84.5 -24.5q-28 0 -50.5 12t-38 32t-23.5 46t-8 54q0 26 10 50.5t27 45.5t39.5 36t47.5 22q-15 24 -24 42t-14 29
q-9 23 -7.5 46.5t12 43t30 31.5t46.5 12t46.5 -15.5t29 -38t8 -49t-15.5 -48.5q-15 -23 -48 -43q5 -10 11.5 -20.5t18 -27.5t29 -43t43.5 -68q6 9 13 21.5t13 24t10.5 21t6.5 12.5q-8 0 -14 1t-14 -6q4 10 9.5 12.5t12 1.5t13.5 -3t15 -2q11 0 17.5 8t7.5 19q2 -6 2 -13
q-1 -10 -8.5 -15.5t-17.5 -7.5q-2 -3 -8 -15t-14 -27.5l-16 -31t-13 -24.5q7 -11 15.5 -24.5t19 -25.5t23 -20.5t28.5 -9.5zM199 433q0 -30 18 -59t37 -52q20 11 29 35t9 47q0 11 -2 24.5t-7.5 25.5t-15 20.5t-24.5 8.5q-20 0 -31.5 -15t-12.5 -35zM190 58q19 -10 39 -10.5
t39 6t36 19t29 30.5q-30 47 -49.5 76.5t-32.5 48.5t-21.5 31.5t-17.5 24.5q-34 -16 -53 -44t-22.5 -60.5t10 -65t43.5 -56.5z" />
    <glyph glyph-name="hyphen" unicode="-" horiz-adv-x="361" 
d="M21 234q11 29 36.5 47.5t59.5 18.5q15 0 28 -4.5t25.5 -10.5t26 -10.5t28.5 -4.5q21 0 40 9t33.5 24t22.5 34.5t8 40.5q9 -26 5.5 -51.5t-17.5 -46.5t-36.5 -34.5t-52.5 -15.5q-11 1 -26 4q-13 2 -32 7t-44 13q-26 8 -45 6t-33 -8q-16 -7 -27 -18z" />
    <glyph glyph-name="at" unicode="@" horiz-adv-x="572" 
d="M538 266q4 -53 -13.5 -101t-50 -84.5t-77.5 -58.5t-97 -22q-35 0 -71 11t-68.5 31t-58 48t-38.5 62q-26 60 -18.5 116t37.5 102.5t76.5 79t97.5 46t100.5 4.5t86.5 -47q56 -59 64.5 -115.5t-12 -100t-58.5 -69.5t-75 -24q-13 1 -24 7q-9 5 -16.5 16.5t-9.5 33.5
q-14 -20 -31 -33q-14 -11 -34 -18.5t-44 0.5q-21 7 -35 24.5t-19 41t-2 49.5t15 51q12 24 29.5 42t38.5 27.5t43.5 10.5t43.5 -9q20 -10 34 -29l10 28h35q-18 -45 -29 -85q-11 -35 -17.5 -69t-1.5 -54q4 -6 10 -10.5t16 -5.5q11 -1 29 9.5t35.5 30.5t31 47t15.5 58.5
t-10.5 65.5t-47.5 68t-80 41.5t-90.5 -5t-86.5 -43t-66.5 -73t-31.5 -94t19 -106.5q13 -29 34.5 -53t49 -41t59.5 -27t65 -10q48 0 90 18.5t74 50t51.5 74.5t22.5 93zM209 167q16 -5 38 2t42 27t34 53.5t14 82.5q-3 14 -11.5 22.5t-19.5 13.5q-13 6 -28 3.5t-30 -12.5
t-28.5 -26t-22.5 -36q-10 -20 -14 -41t-2.5 -39.5t8.5 -32t20 -17.5z" />
    <glyph glyph-name="parenleft" unicode="(" horiz-adv-x="329" 
d="M120 265q0 -20 2.5 -49.5t8.5 -62t16.5 -65t26 -59t37 -44t49.5 -18.5v-47q-57 0 -98 36t-68 89.5t-39.5 114t-12.5 110.5q0 49 11.5 108.5t37 111.5t67.5 89t102 41v-57q-28 -2 -49.5 -18.5t-36.5 -41.5t-25 -56.5t-16.5 -63.5t-9 -63t-3.5 -55z" />
    <glyph glyph-name="parenright" unicode=")" horiz-adv-x="310" 
d="M39 -119h-1v47h1q27 0 48 16t37 41.5t26.5 58t17 65.5t9.5 64t3 53q0 36 -5.5 84.5t-21 93.5t-43 79t-72.5 41v50q0 6 1 7h1q51 0 91.5 -29.5t68.5 -78.5t43 -112t15 -130q0 -30 -5 -68t-16 -76.5t-28.5 -75.5t-41.5 -66t-56 -46.5t-71 -17.5h-1z" />
    <glyph glyph-name="slash" unicode="/" horiz-adv-x="455" 
d="M91 0h-70l340 700h67l-337 -700v0z" />
    <glyph glyph-name="backslash" unicode="\" horiz-adv-x="464" 
d="M368 0l-338 700h68l338 -700h-68z" />
    <glyph glyph-name="percent" unicode="%" horiz-adv-x="587" 
d="M77 0l339 700h49l-334 -700h-54zM271 558q-1 25 -10.5 48t-25 40t-36.5 27t-46 10t-46.5 -10.5t-37 -28t-24.5 -40t-9 -46.5q0 -26 9.5 -48.5t26 -39.5t37.5 -26.5t44 -9.5q25 0 46.5 10t37.5 27.5t25 40t9 46.5zM153 451q-20 1 -34.5 12t-23.5 26.5t-13 34t-4 33.5
q0 50 23.5 74.5t52 24t52 -25.5t23.5 -73q0 -19 -5 -38t-15 -34t-24 -24.5t-32 -9.5zM553 180q-1 25 -10.5 47.5t-25.5 40t-37 27.5t-45 10q-26 0 -47.5 -11t-37 -28.5t-24.5 -40t-9 -45.5q0 -38 19.5 -69t51.5 -45q21 -10 47 -10q25 0 46 9q32 15 52 46t20 69zM435 72
q-20 1 -34.5 11.5t-23.5 26t-13.5 33.5t-4.5 35q0 18 5 37t14.5 34t23.5 25t33 10q20 -1 34.5 -12t23.5 -27t13 -34t4 -33q0 -18 -5 -37t-15 -34.5t-23.5 -25t-31.5 -9.5z" />
    <glyph glyph-name="quotedbl" unicode="&#x22;" horiz-adv-x="352" 
d="M105 401q-19 1 -30 14t-16 31.5t-5 38.5t4 35q8 30 28 51t43 26q13 3 31 0q-2 -5 -2 -7t-1 -4l-1 -2q-11 6 -22.5 -1t-21.5 -19.5t-17 -26.5t-10 -23q-4 -13 -5 -25.5t0 -23.5q8 14 22 16q12 0 20.5 -11t9.5 -28t-7 -28.5t-20 -12.5zM272 400q-17 0 -28 14t-16 33
t-5.5 39.5t2.5 32.5q9 30 28.5 50.5t42.5 26.5q16 3 32 -1l-4 -13q-12 6 -24 -0.5t-21.5 -18.5t-16.5 -26.5t-10 -23.5q-3 -13 -4.5 -25.5t0.5 -23.5q8 15 21 15q12 1 20.5 -10.5t9.5 -27.5q1 -14 -5.5 -26t-21.5 -15z" />
    <glyph glyph-name="period" unicode="." horiz-adv-x="210" 
d="M156 73q0 -29 -15 -50.5t-37 -21.5q-21 0 -36 21.5t-15 50.5q0 30 15 51.5t36 21.5q22 0 37 -21.5t15 -51.5z" />
    <glyph glyph-name="quotesingle" unicode="'" horiz-adv-x="172" 
d="M81 402q-17 0 -28 14t-16 33t-5.5 39.5t2.5 32.5q9 30 28.5 50.5t42.5 26.5q16 3 32 -1l-4 -13q-12 6 -24 -0.5t-21.5 -18.5t-16.5 -26.5t-10 -23.5q-3 -13 -4.5 -25.5t0.5 -23.5q8 15 21 15q12 1 20.5 -10.5t9.5 -27.5q1 -14 -5.5 -26t-21.5 -15z" />
    <glyph glyph-name="grave" unicode="`" 
d="M298 636q0 8 8 9q15 0 29 -10.5t25.5 -25.5t21 -32t15.5 -29q-16 1 -33 9t-31 20t-24 27.5t-11 31.5z" />
    <glyph glyph-name="quoteleft" unicode="&#x2018;" 
d="M346 425q-17 0 -28 14t-16 33t-5.5 39.5t2.5 32.5q9 30 28.5 50.5t42.5 26.5q16 3 32 -1l-4 -13q-12 6 -24 -0.5t-21.5 -18.5t-16.5 -26.5t-10 -23.5q-3 -12 -4.5 -25t0.5 -24q8 15 21 15q12 1 20.5 -10.5t9.5 -27.5q1 -14 -5.5 -26t-21.5 -15z" />
    <glyph glyph-name="quoteright" unicode="&#x2019;" 
d="M325 623q17 0 28 -14t16 -33t5.5 -39.5t-2.5 -32.5q-9 -30 -28.5 -50.5t-42.5 -26.5q-16 -3 -32 1l4 13q12 -6 24 0.5t21.5 18.5t16.5 26.5t10 23.5q3 12 4.5 25t-0.5 24q-8 -15 -21 -15q-12 -1 -20.5 10.5t-9.5 27.5q-1 14 5.5 26t21.5 15z" />
    <glyph glyph-name="quotedblright" unicode="&#x201d;" horiz-adv-x="328" 
d="M116 625q17 0 28 -14t16 -33t5.5 -39.5t-2.5 -32.5q-9 -30 -28.5 -50.5t-42.5 -26.5q-16 -3 -32 1l4 13q12 -6 24 0.5t21.5 18.5t16.5 26.5t10 23.5q3 12 4.5 25t-0.5 24q-8 -15 -21 -15q-12 -1 -20.5 10.5t-9.5 27.5q-1 14 5.5 26t21.5 15zM235 628q17 0 28 -14t16 -33
t5.5 -39.5t-2.5 -32.5q-9 -30 -28.5 -50.5t-42.5 -26.5q-16 -3 -32 1l4 13q12 -6 24 0.5t21.5 18.5t16.5 26.5t10 23.5q3 12 4.5 25t-0.5 24q-8 -15 -21 -15q-12 -1 -20.5 10.5t-9.5 27.5q-1 14 5.5 26t21.5 15z" />
    <glyph glyph-name="tilde" unicode="&#x2dc;" 
d="M96 532q15 41 51 67t83 26q20 0 38.5 -6.5t36.5 -15t36 -15t39 -6.5q30 0 56 12.5t46 33.5t31.5 48t11.5 57q12 -36 7 -71.5t-24 -64.5t-50.5 -48t-72.5 -22q-15 1 -36 5q-18 3 -45 10t-62 18t-62 8.5t-46 -10.5q-22 -10 -38 -26z" />
    <glyph glyph-name="Euro" unicode="&#x20ac;" horiz-adv-x="676" 
d="M595 597q-54 49 -110 52.5t-102.5 -27.5t-78 -90.5t-37.5 -135.5q35 -26 75 -25.5t74 19.5t55.5 53.5t20.5 76.5q15 -48 1 -92.5t-47 -74t-81 -37t-100 18.5q1 -42 12 -81q35 -23 73.5 -20.5t70 22.5t52 53.5t19.5 73.5q16 -42 5.5 -83.5t-39 -71.5t-70.5 -42.5t-88 3.5
q20 -51 55.5 -82.5t76.5 -42t84 1.5t79 48v-83q-63 -29 -126.5 -27t-120.5 28.5t-103 75t-73 113.5q-25 2 -44 -3t-32 -13q-16 -9 -27 -20q11 30 34.5 52.5t54.5 32.5q-5 21 -7.5 43t-0.5 45q-20 -2 -34.5 -8t-25.5 -12q-12 -8 -21 -16q11 29 33 51t52 33q12 76 53.5 139.5
t102 102t134.5 46.5t151 -26v-71v0z" />
    <glyph glyph-name="question" unicode="?" horiz-adv-x="445" 
d="M164 -57q0 -23 -11.5 -39t-28.5 -16q-16 0 -27.5 16t-11.5 39t11.5 39t27.5 16q17 0 28.5 -16t11.5 -39zM96 580q52 24 104 15.5t93.5 -40t67.5 -81.5t26 -108q0 -48 -18 -92t-49.5 -76.5t-74.5 -50t-93 -12.5v-97h-56v170q39 -37 78 -37t69.5 25.5t49.5 71.5t19 101
t-18.5 100.5t-49 71.5t-69.5 26.5t-79 -35.5v48z" />
    <glyph glyph-name="questiondown" unicode="&#xbf;" horiz-adv-x="429" 
d="M267 526q0 23 11 38.5t28 15.5q16 0 27.5 -15.5t11.5 -38.5t-11.5 -38.5t-27.5 -15.5q-17 0 -28 15.5t-11 38.5zM253 -121q44 0 80 18v47q-17 -20 -38.5 -27.5t-46.5 -7.5q-26 0 -49.5 16t-40.5 43t-27 62.5t-10 74.5q0 38 10 73.5t27 62.5t40.5 43t49.5 16q16 0 30 -3
q34 -8 55 -33v55v113h-55v-96q-6 1 -12 1h-13q-43 0 -80.5 -18t-65.5 -49t-44 -72.5t-16 -89.5t16 -89.5t44 -72.5t65.5 -49t80.5 -18z" />
    <glyph glyph-name="exclam" unicode="!" horiz-adv-x="267" 
d="M168 56q0 -17 -9 -29.5t-22 -12.5t-21.5 12.5t-8.5 29.5q0 18 8.5 30.5t21.5 12.5t22 -12.5t9 -30.5zM135 138l-59 573h122z" />
    <glyph glyph-name="numbersign" unicode="#" horiz-adv-x="739" 
d="M714 435h-136l-105 -243h160v-43h-179l-64 -149h-58l65 149h-201l-64 -149h-58l65 149h-108v43h127l106 243h-152v43h171l69 160h56l-70 -160h203l67 160h57l-68 -160h117v-43zM416 192l106 243h-202l-105 -243h201z" />
    <glyph glyph-name="underscore" unicode="_" horiz-adv-x="629" 
d="M39 -206v54h561l-1 -54h-560v0z" />
    <glyph glyph-name="divide" unicode="&#xf7;" horiz-adv-x="534" 
d="M43.3574 289.618v53.002h450.016l-0.908203 -53.002h-449.107zM320 487q0 -30 -15 -51t-37 -21q-21 0 -36 21t-15 51q0 29 15 50.5t36 21.5q22 0 37 -21.5t15 -50.5zM322 157q0 -29 -15 -50.5t-37 -21.5q-21 0 -36 21.5t-15 50.5q0 30 15 51.5t36 21.5q22 0 37 -21.5
t15 -51.5z" />
    <glyph glyph-name="atilde" unicode="&#xe3;" horiz-adv-x="550" 
d="M451 513q28 0 38 -27q-5 4 -10 7q-11 6 -27 3v-497h-75v33q-48 -25 -103 -25q-48 0 -91 19.5t-74.5 52.5t-50 77.5t-18.5 95.5t18.5 96t50 78t74.5 52.5t91 19.5q55 0 103 -25v41q15 -13 31 -13q11 0 20.5 6t22.5 6zM377 382v23q-20 30 -48 41.5t-60 11.5
q-30 0 -56.5 -17.5t-46 -46.5t-31 -66.5t-11.5 -78.5t11.5 -79t31 -67t46 -46t56.5 -17q32 0 60 10.5t48 40.5v291zM131.713 540.275q12.1426 33.2383 41.2852 54.3154t67.1895 21.0771q16.1895 0 31.166 -5.26953q14.9756 -5.26953 29.5469 -12.1602t29.1426 -12.1592
q14.5713 -5.26953 31.5703 -5.26953q24.2852 0 45.333 10.1328q21.0469 10.1338 37.2373 27.1572q16.1904 17.0244 25.499 38.9121q9.30957 21.8887 9.30957 46.209q9.71387 -29.1846 5.66699 -57.9629q-4.04785 -28.7793 -19.4287 -52.2881
q-15.3809 -23.5098 -40.8799 -38.9121q-25.5 -15.4033 -58.6895 -17.835q-12.1426 0.810547 -29.1426 4.05273q-14.5713 2.43262 -36.4277 8.10742t-50.1895 14.5918t-50.1895 6.89062q-21.8574 -2.02637 -37.2373 -8.51172q-17.8096 -8.10742 -30.7617 -21.0781z" />
    <glyph glyph-name="adieresis" unicode="&#xe4;" horiz-adv-x="538" 
d="M247 612q0 -20 -10 -33.5t-24 -13.5t-23.5 13.5t-9.5 33.5q0 19 9.5 33t23.5 14t24 -14t10 -33zM415 614q0 -20 -10 -33.5t-24 -13.5t-23.5 13.5t-9.5 33.5q0 19 9.5 33t23.5 14t24 -14t10 -33zM442 513q-13 0 -22.5 -6t-20.5 -6q-16 0 -31 13v-41q-48 25 -103 25
q-48 0 -91 -19.5t-74.5 -52.5t-50 -78t-18.5 -96t18.5 -95.5t50 -77.5t74.5 -52.5t91 -19.5q55 0 103 25v-33h75v497q16 3 27 -3q5 -3 10 -7q-10 27 -38 27zM368 91q-20 -30 -48 -40.5t-60 -10.5q-30 0 -56.5 17t-46 46t-31 67t-11.5 79t11.5 78.5t31 66.5t46 46.5
t56.5 17.5q32 0 60 -11.5t48 -41.5v-23v-291z" />
    <glyph glyph-name="egrave" unicode="&#xe8;" horiz-adv-x="477" 
d="M84 249v-4q0 -30 7.5 -66.5t24 -68.5t43 -54t64.5 -23q25 1 46 12t37 29t27 40.5t17 45.5h76q-11 -31 -30 -60t-45 -51.5t-58.5 -36t-69.5 -13.5q-47 0 -86.5 21.5t-68.5 56.5t-45.5 80t-16.5 92q0 42 15 86.5t43 81t68 59.5t91 23h1q48 0 87.5 -20.5t68 -55t44 -80
t15.5 -94.5h-355zM223 458q-30 0 -52.5 -15t-39 -38t-26.5 -52t-16 -56l269 3q-5 25 -15 52.5t-26.5 50.5t-39.5 38.5t-54 16.5zM218 640q0 8 8 9q15 0 29 -10.5t25.5 -25.5t21 -32t15.5 -29q-16 1 -33 9t-31 20t-24 27.5t-11 31.5z" />
    <glyph glyph-name="edieresis" unicode="&#xeb;" horiz-adv-x="473" 
d="M208 588q0 -20 -10 -33.5t-24 -13.5t-23.5 13.5t-9.5 33.5q0 19 9.5 33t23.5 14t24 -14t10 -33zM376 590q0 -20 -10 -33.5t-24 -13.5t-23.5 13.5t-9.5 33.5q0 19 9.5 33t23.5 14t24 -14t10 -33zM446 249q0 49 -15.5 94.5t-44 80t-68 55t-87.5 20.5h-1q-51 0 -91 -23
t-68 -59.5t-43 -81t-15 -86.5q0 -47 16.5 -92t45.5 -80t68.5 -56.5t86.5 -21.5q37 0 69.5 13.5t58.5 36t45 51.5t30 60h-76q-6 -23 -17 -45.5t-27 -40.5t-37 -29t-46 -12q-38 1 -64.5 23t-43 54t-24 68.5t-7.5 66.5v4h355zM230 458q31 -1 54 -16.5t39.5 -38.5t26.5 -50.5
t15 -52.5l-269 -3q6 27 16 56t26.5 52t39 38t52.5 15z" />
    <glyph glyph-name="idieresis" unicode="&#xef;" horiz-adv-x="299" 
d="M123 591q0 -20 -10 -33.5t-24 -13.5t-23.5 13.5t-9.5 33.5q0 19 9.5 33t23.5 14t24 -14t10 -33zM226 590q0 -20 -10 -33.5t-24 -13.5t-23.5 13.5t-9.5 33.5q0 19 9.5 33t23.5 14t24 -14t10 -33zM187 53q0 -17 -13 -30v476h-71v-475q-24 -3 -31 -25q4 4 10 7q5 2 12 3
t17 -2q9 -4 16.5 -5.5l12.5 -2.5q6 -1 10 -1q17 0 28.5 11.5t11.5 28.5q0 9 -3 15z" />
    <glyph glyph-name="ograve" unicode="&#xf2;" horiz-adv-x="571" 
d="M519 253q0 -46 -16.5 -91t-46 -80.5t-71 -57.5t-91.5 -22q-47 0 -89 21q-30 14 -55 37t-43 53t-28 65.5t-10 74.5q0 46 16.5 91t46 80t71 57t91.5 22q48 0 88.5 -21t70 -55.5t47 -79.5t19.5 -94zM294 36q37 0 64 20.5t45 52t26.5 69t8.5 71.5q0 31 -8 68t-25.5 68.5
t-44.5 53t-66 23.5q-37 0 -64 -21t-45 -52.5t-27 -69t-9 -70.5q0 -32 8 -68.5t25.5 -68t45 -53.5t66.5 -23zM239 640q0 8 8 9q15 0 29 -10.5t25.5 -25.5t21 -32t15.5 -29q-16 1 -33 9t-31 20t-24 27.5t-11 31.5z" />
    <glyph glyph-name="odieresis" unicode="&#xf6;" horiz-adv-x="554" 
d="M224 588q0 -20 -10 -33.5t-24 -13.5t-23.5 13.5t-9.5 33.5q0 19 9.5 33t23.5 14t24 -14t10 -33zM392 590q0 -20 -10 -33.5t-24 -13.5t-23.5 13.5t-9.5 33.5q0 19 9.5 33t23.5 14t24 -14t10 -33zM493 248q-2 49 -19.5 94t-47 79.5t-70 55.5t-88.5 21q-50 0 -91.5 -22
t-71 -57t-46 -80t-16.5 -91q0 -39 10 -74.5t28 -65.5t43 -53t55 -37q42 -21 89 -21q50 0 91.5 22t71 57.5t46 80.5t16.5 91zM268 31q-39 1 -66.5 23t-45 53.5t-25.5 68t-8 68.5q0 33 9 70.5t27 69t45 52.5t64 21q39 -2 66 -23.5t44.5 -53t25.5 -68.5t8 -68q0 -34 -8.5 -71.5
t-26.5 -69t-45 -52t-64 -20.5z" />
    <glyph glyph-name="ugrave" unicode="&#xf9;" horiz-adv-x="583" 
d="M526 51q3 -8 3 -16q0 -14 -8 -25q-14 -17 -34.5 -16.5t-41.5 7.5q-5 2 -9.5 2.5t-8.5 0.5v94q-7 -23 -20 -43t-30.5 -35.5t-39.5 -24.5t-46 -9q-29 0 -55 12.5t-45 33t-30.5 47.5t-12.5 56v269q0 28 -20 47.5t-48 19.5q-23 0 -39 -12l1 2q13 19 33 30t45 11
q39 0 65 -26.5t26 -65.5v-231q0 -23 7.5 -49t21.5 -48t32.5 -37t41.5 -15q21 0 41.5 12.5t37 32t27.5 43t14 44.5q0 94 -0.5 147.5t-2 80.5t-3.5 35t-4 12q-9 14 -23 22.5t-31 8.5q-21 0 -37 -12l1 2q12 19 31.5 30.5t42.5 11.5q4 0 7.5 -0.5t8.5 -1.5q29 -5 51.5 -27.5
t22.5 -53.5v-399q14 -5 20.5 7t7.5 26zM220 632q0 8 8 9q15 0 29 -10.5t25.5 -25.5t21 -32t15.5 -29q-16 1 -33 9t-31 20t-24 27.5t-11 31.5z" />
    <glyph glyph-name="udieresis" unicode="&#xfc;" horiz-adv-x="554" 
d="M224 588q0 -20 -10 -33.5t-24 -13.5t-23.5 13.5t-9.5 33.5q0 19 9.5 33t23.5 14t24 -14t10 -33zM392 590q0 -20 -10 -33.5t-24 -13.5t-23.5 13.5t-9.5 33.5q0 19 9.5 33t23.5 14t24 -14t10 -33zM503 53q-1 -14 -7.5 -26t-20.5 -7v399q0 31 -22.5 53.5t-51.5 27.5
q-5 1 -8.5 1.5t-7.5 0.5q-23 0 -42.5 -11.5t-31.5 -30.5l-1 -2q16 12 37 12q17 0 31 -8.5t23 -22.5q2 -4 4 -12t3.5 -35t2 -80.5t0.5 -147.5q-3 -21 -14 -44.5t-27.5 -43t-37 -32t-41.5 -12.5q-23 0 -41.5 15t-32.5 37t-21.5 48t-7.5 49v231q0 39 -26 65.5t-65 26.5
q-25 0 -45 -11t-33 -30l-1 -2q16 12 39 12q28 0 48 -19.5t20 -47.5v-269q1 -29 12.5 -56t30.5 -47.5t45 -33t55 -12.5q24 0 46 9t39.5 24.5t30.5 35.5t20 43v-94q4 0 8.5 -0.5t9.5 -2.5q21 -7 41.5 -7.5t34.5 16.5q8 11 8 25q0 8 -3 16z" />
    <glyph glyph-name="igrave" unicode="&#xec;" horiz-adv-x="312" 
d="M201 58q0 -18 -14 -30v476h-71v-475q-23 -3 -31 -25q4 4 10 7q5 2 12.5 3t17.5 -2q20 -7 28 -8q5 -1 10 -1q17 0 28.5 11.5t11.5 28.5q0 7 -2 15zM69 638q0 8 8 9q15 0 29 -10.5t25.5 -25.5t21 -32t15.5 -29q-16 1 -33 9t-31 20t-24 27.5t-11 31.5z" />
    <glyph glyph-name="ntilde" unicode="&#xf1;" horiz-adv-x="548" 
d="M477 32q21 0 38 12v-2q-13 -19 -33.5 -30t-44.5 -11q-20 0 -37 7.5t-29.5 20t-20 29.5t-7.5 36v232q0 45 -28.5 77t-73.5 32q-43 0 -72 -28t-33 -70v-337h-72v488q-17 4 -29 -1q-6 -3 -10 -7q5 11 15 18t24 7q7 0 17 -4q10 -7 22 -7q16 0 29 13v-17v-88h1q13 45 49.5 73
t84.5 28q29 0 54.5 -10.5t45 -29.5t31 -44t12.5 -54v-266q0 -28 19.5 -47.5t47.5 -19.5zM60.9883 538.213q10.7793 29.4561 36.6504 48.1357q25.8701 18.6797 59.6455 18.6797q14.373 0 27.667 -4.66992q13.2949 -4.66992 26.2305 -10.7773
q12.9355 -6.10645 25.8701 -10.7764q12.9355 -4.66992 28.0264 -4.66992q21.5596 0 40.2441 8.98047q18.6836 8.98047 33.0566 24.0684q14.3721 15.0869 22.6367 34.4854q8.26367 19.3975 8.26367 40.9512q8.62402 -25.8643 5.03125 -51.3691
q-3.59375 -25.5049 -17.248 -46.3398q-13.6533 -20.835 -36.29 -34.4854t-52.1006 -15.8057q-10.7793 0.71875 -25.8711 3.59277q-12.9346 2.15527 -32.3379 7.18457q-19.4033 5.02832 -44.5547 12.9316q-25.1523 7.90332 -44.5547 6.10645
q-19.4033 -1.7959 -33.0576 -7.54297q-15.8096 -7.18457 -27.3076 -18.6797z" />
    <glyph glyph-name="otilde" unicode="&#xf5;" horiz-adv-x="558" 
d="M498 253q0 -46 -16.5 -91t-46 -80.5t-71 -57.5t-91.5 -22q-47 0 -89 21q-30 14 -55 37t-43 53t-28 65.5t-10 74.5q0 46 16.5 91t46 80t71 57t91.5 22q48 0 88.5 -21t70 -55.5t47 -79.5t19.5 -94zM273 36q37 0 64 20.5t45 52t26.5 69t8.5 71.5q0 31 -8 68t-25.5 68.5
t-44.5 53t-66 23.5q-37 0 -64 -21t-45 -52.5t-27 -69t-9 -70.5q0 -32 8 -68.5t25.5 -68t45 -53.5t66.5 -23zM90.0547 540.95q11.8838 32.4414 40.4043 53.0146q28.5205 20.5723 65.7559 20.5723q15.8438 0 30.501 -5.14258q14.6562 -5.14355 28.916 -11.8691
q14.2607 -6.72559 28.5205 -11.8691q14.2607 -5.14258 30.8975 -5.14258q23.7666 0 44.3652 9.89062t36.4424 26.5068q15.8457 16.6162 24.9561 37.9805t9.11035 45.1016q9.50684 -28.4854 5.5459 -56.5752t-19.0137 -51.0361t-40.0078 -37.9805
q-24.9561 -15.0342 -57.4375 -17.4072q-11.8838 0.791016 -28.5205 3.95605q-14.2598 2.37402 -35.6504 7.91309q-21.3906 5.53809 -49.1191 14.2422q-27.7275 8.7041 -49.1182 6.72559q-21.3906 -1.97754 -36.4424 -8.30762q-17.4297 -7.91309 -30.1055 -20.5732z" />
    <glyph glyph-name="agrave" unicode="&#xe0;" horiz-adv-x="531" 
d="M456 513q28 0 38 -27q-5 4 -10 7q-11 6 -27 3v-497h-75v33q-48 -25 -103 -25q-48 0 -91 19.5t-74.5 52.5t-50 77.5t-18.5 95.5t18.5 96t50 78t74.5 52.5t91 19.5q55 0 103 -25v41q15 -13 31 -13q11 0 20.5 6t22.5 6zM382 382v23q-20 30 -48 41.5t-60 11.5
q-30 0 -56.5 -17.5t-46 -46.5t-31 -66.5t-11.5 -78.5t11.5 -79t31 -67t46 -46t56.5 -17q32 0 60 10.5t48 40.5v291zM224 640q0 8 8 9q15 0 29 -10.5t25.5 -25.5t21 -32t15.5 -29q-16 1 -33 9t-31 20t-24 27.5t-11 31.5z" />
    <glyph glyph-name="endash" unicode="&#x2013;" 
d="M115 244v54h395v-54h-395z" />
    <glyph glyph-name="emdash" unicode="&#x2014;" 
d="M44 242v54h545v-54h-545z" />
    <glyph glyph-name="periodcentered" unicode="&#xb7;" 
d="M364 304q0 -20 -10 -33.5t-24 -13.5t-23.5 13.5t-9.5 33.5t9.5 33.5t23.5 13.5t24 -13.5t10 -33.5z" />
    <glyph glyph-name="cent" unicode="&#xa2;" 
d="M479 413q-20 22 -45.5 31t-54.5 9v-424q29 0 54.5 8t45.5 28v-51q-48 -20 -100 -20v1v-92h-54v97q-43 9 -80 31.5t-64 55t-42.5 72.5t-15.5 85t15.5 85.5t42.5 73t64 55t80 31.5v113h54v-108q27 0 52 -5.5t48 -15.5v-60zM325 443q-24 -11 -44.5 -31t-35 -47t-23 -59
t-8.5 -66q0 -33 8.5 -64.5t23 -58.5t35 -47t44.5 -31v404z" />
    <glyph glyph-name="asciicircum" unicode="^" horiz-adv-x="761" 
d="M458 495l-160 160l-160 -160h-40l200 200l199 -200h-39v0z" />
    <glyph glyph-name="acircumflex" unicode="&#xe2;" horiz-adv-x="547" 
d="M480 513q28 0 38 -27q-5 4 -10 7q-11 6 -27 3v-497h-75v33q-48 -25 -103 -25q-48 0 -91 19.5t-74.5 52.5t-50 77.5t-18.5 95.5t18.5 96t50 78t74.5 52.5t91 19.5q55 0 103 -25v41q15 -13 31 -13q11 0 20.5 6t22.5 6zM406 382v23q-20 30 -48 41.5t-60 11.5
q-30 0 -56.5 -17.5t-46 -46.5t-31 -66.5t-11.5 -78.5t11.5 -79t31 -67t46 -46t56.5 -17q32 0 60 10.5t48 40.5v291zM422.847 539.062l-123.906 124.004l-123.906 -124.004h-30.9766l154.883 155.005l154.108 -155.005h-30.2021v0z" />
    <glyph glyph-name="circumflex" unicode="&#x2c6;" 
d="M475 502l-160 160l-160 -160h-40l200 200l199 -200h-39v0z" />
    <glyph glyph-name="Ntilde" unicode="&#xd1;" horiz-adv-x="575" 
d="M516.789 693.004q5.7168 -15.2549 0.476562 -30.5098t-19.5312 -23.8359v-640.705h-87.6543l-264.867 531.061v-505.317q16.1973 14.3008 16.1973 33.3701q2.8584 -7.62793 2.8584 -16.209q0 -22.8818 -19.0557 -35.2764q-7.62207 -6.67383 -15.2441 -7.62793
q-4.76367 0 -8.09863 -0.476562q-3.33398 -0.476562 -8.09766 0.476562q-10.4805 1.90723 -20.9609 6.19727q-10.4805 4.29102 -20.9609 4.29102q-16.1963 2.86035 -26.6768 -2.86035q-5.7168 -2.86035 -9.52832 -6.67383q4.76465 10.4873 14.292 18.1152
q9.52734 7.62695 21.9131 8.58008l-1.90527 636.892l85.748 0.953125l270.584 -537.734v518.666q-8.5752 1.90723 -14.7686 0q-6.19238 -1.90625 -10.9561 -3.81348q-4.76367 -2.86035 -8.5752 -6.67383q7.62207 24.7891 34.2998 27.6494h4.76367
q10.4805 0 20.0078 -4.76758q4.76367 -2.86035 10.4805 -5.24414q5.7168 -2.38281 13.3379 -2.38281q12.3867 0 22.8672 7.62695q19.0547 14.3018 19.0547 36.2305zM81.1016 681.1q13.7656 37.6172 46.8037 61.4707q33.0381 23.8555 76.1709 23.8555
q18.3555 0 35.333 -5.96387t33.4971 -13.7627q16.5186 -7.79883 33.0381 -13.7617q16.5186 -5.96387 35.791 -5.96387q27.5322 0 51.3926 11.4688q23.8604 11.4678 42.2158 30.7354q18.3535 19.2676 28.9082 44.0391q10.5537 24.7715 10.5537 52.2969
q11.0127 -33.0293 6.42383 -65.6006q-4.58887 -32.5703 -22.0254 -59.1768q-17.4365 -26.6074 -46.3447 -44.0391q-28.9082 -17.4326 -66.5352 -20.1855q-13.7656 0.917969 -33.0381 4.58789q-16.5195 2.75195 -41.2979 9.1748t-56.8984 16.5146
q-32.1211 10.0918 -56.8994 7.79883q-24.7783 -2.29395 -42.2158 -9.63379q-20.1895 -9.1748 -34.873 -23.8545z" />
    <glyph glyph-name="Agrave" unicode="&#xc0;" horiz-adv-x="601" 
d="M234 738q0 8 8 9q15 0 29 -10.5t25.5 -25.5t21 -32t15.5 -29q-16 1 -33 9t-31 20t-24 27.5t-11 31.5zM328.433 623.096l212.67 -621.315h-76.5254l-72.9668 231.436q-8.00781 -17.8027 -20.0205 -33.3799q-12.0137 -15.5781 -27.1406 -28.0391
q-15.127 -12.4629 -32.9238 -19.584q-17.7959 -7.12109 -36.4824 -7.12109q-10.6787 0.890625 -24.916 3.56055q-12.457 1.78125 -30.2539 6.23145t-41.8223 11.5713l-35.5928 -166.455l-78.3057 0.890625l57.8389 180.697q-24.915 4.45117 -42.7119 -0.445312
q-17.7959 -4.89551 -29.3643 -12.0166q-14.2373 -8.90137 -23.1357 -20.4736q13.3477 37.3867 44.0469 61.8652t70.7422 24.4785l111.229 388.1h75.6357zM270.594 195.83q33.8135 0 59.6182 21.3633q25.8057 21.3633 42.7119 52.5176l-88.0928 284.844l-88.0938 -331.131
q17.7969 -8.90039 34.2588 -17.8027q16.4619 -8.90039 39.5977 -9.79102z" />
    <glyph glyph-name="Aacute" unicode="&#xc1;" horiz-adv-x="638" 
d="M325 655q6 12 15.5 29t21 32t25.5 25.5t29 10.5q8 -1 8 -9q-2 -16 -11.5 -31.5t-23.5 -27.5t-31 -20t-33 -9zM280 623l-111 -388q-41 0 -71 -24t-44 -62q9 12 23 21q11 8 29 12t43 0l-58 -181l78 -1l36 166q24 -8 42 -12t30 -6q14 -3 25 -3q19 0 37 7.5t33 19.5t27 28
t20 33l73 -231h76l-213 621h-75zM298 196q-23 1 -39.5 10t-34.5 17l88 332l88 -285q-17 -31 -43 -52.5t-59 -21.5z" />
    <glyph glyph-name="dieresis" unicode="&#xa8;" 
d="M285 588q0 -20 -10 -33.5t-24 -13.5t-23.5 13.5t-9.5 33.5q0 19 9.5 33t23.5 14t24 -14t10 -33zM453 590q0 -20 -10 -33.5t-24 -13.5t-23.5 13.5t-9.5 33.5q0 19 9.5 33t23.5 14t24 -14t10 -33z" />
    <glyph glyph-name="Udieresis" unicode="&#xdc;" horiz-adv-x="603" 
d="M438.739 623.384q26.2861 0 48.6299 -10.5215t38.1152 -28.4951q15.7725 -17.9736 23.6582 -41.6465q7.88672 -23.6729 5.25781 -49.9756l-6.13379 -285.827q-1.75293 -20.166 -6.13379 -42.085q-4.38086 -18.4121 -13.1426 -41.6465q-8.7627 -23.2344 -26.2871 -45.1543
q-11.3906 -14.0283 -25.8486 -27.6182t-34.1729 -24.5498q-19.7148 -10.959 -44.249 -17.9736q-24.5342 -7.01367 -55.2021 -7.01367q-1.75195 -0.876953 -6.57129 -0.438477t-10.9521 0.438477h-14.8965q-46.4395 5.26074 -82.8027 32.4404t-55.6396 67.5107
q-5.25781 10.5215 -8.7627 23.6729q-3.50488 11.3984 -6.13281 26.7422q-2.62891 15.3428 -2.62891 33.7549v319.145q0 15.7822 -6.13379 30.6875q-6.13379 14.9043 -17.5244 25.8643t-26.2871 17.5352q-14.8955 6.57617 -32.4199 6.57617q-27.1621 0 -47.3154 -14.9053
v2.63086q0.875977 0 0.875977 1.75293l-1.75195 -1.75293v1.75293q15.7715 22.7959 40.7441 37.2627q24.9717 14.4668 55.6396 14.4668q36.8018 0 65.7168 -20.166q28.915 -20.165 42.0586 -52.6055q9.6377 -21.9199 9.6377 -46.4688q-0.875977 -10.5215 -1.75195 -37.7012
t-1.75195 -62.251q-0.876953 -35.0713 -1.31445 -74.0869q-0.438477 -39.0166 0 -72.7725q0.4375 -33.7549 2.19043 -59.1816q1.75195 -25.4268 5.25684 -33.3174q7.88672 -18.4121 20.5918 -37.7012t28.4766 -35.5088q15.7725 -16.2207 35.0488 -26.7412
q19.2773 -10.5215 40.3066 -10.5215q17.5244 0 36.8008 7.89062q19.2773 7.89062 35.4873 21.043q16.21 13.1514 26.7246 29.3711q10.5146 16.2207 10.5146 32.002v17.0977q0 16.2197 -0.438477 41.208q-0.4375 24.9883 -0.4375 56.5518v64.8809
q-0.875977 77.1562 -0.875977 174.478q0 17.5352 -6.57227 32.8789q-6.57129 15.3428 -17.9629 26.3027q-11.3906 10.96 -26.7246 17.5352q-15.334 6.57617 -31.9814 6.57617q-26.2871 0 -48.1924 -14.9053l0.875977 2.63086q15.7725 22.7959 40.7441 36.8242
q24.9727 14.0283 55.6406 14.0283zM249 702q0 -20 -10 -33.5t-24 -13.5t-23.5 13.5t-9.5 33.5q0 19 9.5 33t23.5 14t24 -14t10 -33zM417 704q0 -20 -10 -33.5t-24 -13.5t-23.5 13.5t-9.5 33.5q0 19 9.5 33t23.5 14t24 -14t10 -33z" />
    <glyph glyph-name="Adieresis" unicode="&#xc4;" 
d="M421.403 645.083l218.956 -639.251h-78.7871l-75.123 238.116q-8.24609 -18.3164 -20.6133 -34.3438q-12.3682 -16.0273 -27.9424 -28.8486q-15.5742 -12.8223 -33.8975 -20.1484q-18.3223 -7.32715 -37.5615 -7.32715q-10.9932 0.916016 -25.6514 3.66406
q-12.8262 1.83105 -31.1494 6.41016q-18.3223 4.5791 -43.0576 11.9062l-36.6465 -171.261l-80.6191 0.916016l59.5488 185.914q-25.6523 4.5791 -43.9746 -0.458008q-18.3232 -5.03711 -30.2324 -12.3643q-14.6582 -9.1582 -23.8203 -21.0635
q13.7422 38.4648 45.3486 63.6504q31.6074 25.1846 72.833 25.1846l114.518 399.304h77.8721zM361.854 205.483q34.8135 0 61.3818 21.9795q26.5674 21.9805 43.9746 54.0342l-90.6982 293.066l-90.6973 -340.689q18.3232 -9.1582 35.2715 -18.3164t40.7676 -10.0742z
M329 702q0 -20 -10 -33.5t-24 -13.5t-23.5 13.5t-9.5 33.5q0 19 9.5 33t23.5 14t24 -14t10 -33zM497 704q0 -20 -10 -33.5t-24 -13.5t-23.5 13.5t-9.5 33.5q0 19 9.5 33t23.5 14t24 -14t10 -33z" />
    <glyph glyph-name="Egrave" unicode="&#xc8;" horiz-adv-x="510" 
d="M299 44q29 0 54.5 11t45 29.5t31 42.5t11.5 50q15 -34 8.5 -66t-26.5 -57t-51 -41t-67 -18q-29 0 -56.5 7t-55.5 14.5t-55 12.5t-54 0q-29 -7 -46 -19q-9 -6 -15 -12q10 26 24 47.5t37 32.5v533q-15 -3 -26.5 -8t-19.5 -10q-9 -6 -15 -12q10 26 24 47t37 35h3
q31 12 58 7.5t51.5 -14t49.5 -20t53 -10.5q29 0 54.5 11t45 29.5t31 43t11.5 50.5q5 -11 7 -24.5t2 -25.5q0 -28 -11.5 -52t-31 -42t-46 -28.5t-56.5 -10.5q-19 2 -42 6q-20 3 -46 8.5t-56 14.5l2 -255q13 -6 36.5 -10.5t39.5 -4.5q22 0 42 8.5t35 23t24 33t9 39.5
q13 -26 8.5 -51t-21 -45t-41.5 -33t-52 -14q-13 -1 -26 0q-11 1 -26 2.5t-30 5.5l1 -229q6 -2 24 -7t39.5 -10.5t42 -10t31.5 -4.5zM198 749q0 8 8 9q15 0 29 -10.5t25.5 -25.5t21 -32t15.5 -29q-16 1 -33 9t-31 20t-24 27.5t-11 31.5z" />
    <glyph glyph-name="Eacute" unicode="&#xc9;" horiz-adv-x="510" 
d="M250 661q6 12 15.5 29t21 32t25.5 25.5t29 10.5q8 -1 8 -9q-2 -16 -11.5 -31.5t-23.5 -27.5t-31 -20t-33 -9zM300 46q-11 0 -31 4t-41 9.5t-38.5 10.5t-22.5 7l-1 222q15 -4 29 -5.5t25 -2.5q13 -1 25 0q27 1 51 13.5t40 32t20.5 44t-8.5 49.5q0 -20 -8.5 -38.5
t-23 -32.5t-33.5 -22t-41 -8q-16 0 -39 4.5t-35 9.5l-2 248q29 -9 55 -14.5t45 -8.5q22 -4 40 -5q29 0 54.5 10t44.5 27.5t30 41t11 50.5q0 11 -2 24t-7 24q0 -26 -11 -49.5t-30 -41.5t-43.5 -28.5t-52.5 -10.5q-27 0 -51.5 10t-48.5 19.5t-49.5 14t-56.5 -7.5h-3
q-22 -13 -35.5 -34t-23.5 -46q6 6 15 12q8 5 19 10t25 8v-517q-22 -11 -35.5 -32t-23.5 -46q6 7 15 12q8 5 19 9.5t25 8.5q26 5 52.5 0.5t53.5 -12t54 -14.5t55 -7q34 2 64.5 17.5t50 40t25 55.5t-8.5 64q0 -26 -11 -49t-30 -41t-43.5 -28.5t-52.5 -10.5z" />
    <glyph glyph-name="Ecircumflex" unicode="&#xca;" horiz-adv-x="522" 
d="M312.815 46.8486q27.6426 0 51.9482 10.4961q24.3066 10.4971 42.8936 28.1494q18.5869 17.6533 29.5488 40.5547t10.9619 47.7109q14.2979 -32.4434 8.10156 -62.9785q-6.19531 -30.5352 -25.2588 -54.3906q-19.0645 -23.8555 -48.6123 -39.123
q-29.5488 -15.2676 -63.8643 -17.1758q-27.6416 0 -53.8545 6.67969t-52.9023 13.8359q-26.6885 7.15625 -52.4248 11.9277t-51.4717 0q-27.6426 -6.67969 -43.8467 -18.1299q-8.5791 -5.72559 -14.2979 -11.4512q9.53125 24.8096 22.876 45.3262
q13.3447 20.5156 35.2686 31.0117v508.602q-14.2979 -2.86328 -25.2598 -7.63379q-10.9619 -4.77148 -18.5869 -9.54297q-8.5791 -5.72461 -14.2979 -11.4502q9.53125 24.8096 22.876 44.8486t35.2686 33.3975h2.85938q29.5488 11.4512 55.2842 7.15723
q25.7363 -4.29395 49.0898 -13.3594q23.3525 -9.06543 47.1826 -19.085q23.8291 -10.0186 50.5186 -10.0186q27.6426 0 51.9482 10.4961q24.3066 10.4961 42.8936 28.1494t29.5488 41.0322q10.9619 23.3779 10.9619 48.1875q4.76562 -10.4961 6.67188 -23.3779
t1.90625 -24.333q0 -26.7178 -10.9609 -49.6191q-10.9619 -22.9014 -29.5488 -40.0781q-18.5879 -17.1758 -43.8467 -27.1953q-25.2598 -10.0195 -53.8555 -10.0195q-18.1104 1.90918 -40.0332 5.72559q-19.0645 2.86328 -43.8467 8.11133
q-24.7832 5.24805 -53.3789 13.8359l1.90625 -243.327q12.3916 -5.72461 34.792 -10.0195q22.3994 -4.29395 37.6504 -4.29395q20.9707 0 40.0342 8.11133q19.0635 8.11035 33.3613 21.9473q14.2979 13.8359 22.877 31.4893q8.57812 17.6533 8.57812 37.6914
q12.3916 -24.8096 8.10254 -48.665q-4.29004 -23.8555 -20.0176 -42.9404q-15.7275 -19.084 -39.5566 -31.4893q-23.8301 -12.4043 -49.5664 -13.3584q-12.3906 -0.955078 -24.7822 0q-10.4854 0.954102 -24.7832 2.38477q-14.2979 1.43164 -28.5957 5.24805
l0.953125 -218.517q5.71973 -1.9082 22.877 -6.67969t37.6504 -10.0195q20.4941 -5.24805 40.0342 -9.54199t30.0254 -4.29395zM308.9 663.394l-71.377 71.2012l-71.377 -71.2012h-17.8447l89.2217 89.002l88.7754 -89.002h-17.3984v0z" />
    <glyph glyph-name="Edieresis" unicode="&#xcb;" horiz-adv-x="493" 
d="M304.942 42.0957q27.8457 0 52.3311 10.5537t43.209 28.3047q18.7246 17.75 29.7666 40.7773t11.042 47.9736q14.4033 -32.6221 8.16211 -63.3252t-25.4453 -54.6904q-19.2041 -23.9863 -48.9707 -39.3379t-64.334 -17.2705q-27.8457 0 -54.251 6.71582
q-26.4062 6.7168 -53.292 13.9131t-52.8105 11.9932q-25.9258 4.79688 -51.8516 0q-27.8457 -6.7168 -44.1699 -18.2305q-8.6416 -5.75586 -14.4023 -11.5137q9.60156 24.9473 23.0449 45.5752q13.4424 20.6289 35.5273 31.1826v511.399
q-14.4033 -2.87793 -25.4453 -7.67578q-11.043 -4.79785 -18.7246 -9.59473q-8.6416 -5.75684 -14.4023 -11.5137q9.60156 24.9463 23.0449 45.0957q13.4424 20.1484 35.5273 33.5811h2.88086q29.7656 11.5137 55.6914 7.19629q25.9258 -4.31836 49.4512 -13.4326
q23.5244 -9.11523 47.5293 -19.1895q24.0059 -10.0752 50.8916 -10.0752q27.8457 0 52.3311 10.5547t43.209 28.3047q18.7246 17.75 29.7666 41.2568t11.042 48.4541q4.80078 -10.5547 6.72168 -23.5078t1.9209 -24.4668q0 -26.8652 -11.043 -49.8926
q-11.042 -23.0273 -29.7666 -40.2969q-18.7236 -17.2715 -44.1689 -27.3457t-54.252 -10.0742q-18.2441 1.91895 -40.3281 5.75684q-19.2041 2.87793 -44.1699 8.15527q-24.9648 5.27734 -53.7715 13.9121l1.9209 -244.665q12.4824 -5.75684 35.0469 -10.0742
q22.5654 -4.31738 37.9287 -4.31738q21.124 0 40.3281 8.15527t33.6074 22.0674t23.0449 31.6631q8.6416 17.75 8.6416 37.8994q12.4834 -24.9473 8.16211 -48.9336t-20.1641 -43.1758q-15.8438 -19.1895 -39.8486 -31.6631q-24.0059 -12.4736 -49.9307 -13.4326
q-12.4834 -0.958984 -24.9658 0q-10.5625 0.958984 -24.9648 2.39844q-14.4033 1.43945 -28.8066 5.27734l0.960938 -219.719q5.76074 -1.91992 23.0449 -6.7168q17.2832 -4.79688 37.9277 -10.0742t40.3281 -9.59473q19.6846 -4.31738 30.2471 -4.31738zM220.898 707.738
q0 -17.916 -8.97949 -30.0098q-8.97852 -12.0938 -21.5488 -12.0938t-21.1006 12.0938t-8.53027 30.0098q0 17.0205 8.53027 29.5615t21.1006 12.541t21.5488 -12.541q8.97949 -12.541 8.97949 -29.5615zM371.743 709.529q0 -17.916 -8.97852 -30.0098
q-8.97949 -12.0928 -21.5498 -12.0928t-21.0996 12.0928q-8.53027 12.0938 -8.53027 30.0098q0 17.0205 8.53027 29.5625q8.5293 12.541 21.0996 12.541t21.5498 -12.541q8.97852 -12.542 8.97852 -29.5625z" />
    <glyph glyph-name="Igrave" unicode="&#xcc;" horiz-adv-x="396" 
d="M232 42q24 0 44 9.5t35 25.5t23.5 38t10.5 46q8 -27 5 -55.5t-16.5 -51.5t-37 -38.5t-56.5 -17.5q-26 0 -52.5 8t-55.5 18q-27 9 -47.5 6.5t-34.5 -9.5q-17 -8 -29 -20q14 40 50 60.5t79 10.5l-5 543q-29 14 -64.5 9.5t-59.5 -28.5q11 32 38.5 53t62.5 21q15 0 29 -5.5
t27.5 -11.5t27 -11.5t29.5 -5.5q22 0 42 10t35 26.5t24 38t9 44.5q3 -9 5 -21t2 -23q0 -23 -9.5 -46t-26 -40.5t-39 -27t-47.5 -4.5l2 -551v0zM141 765q0 8 8 9q15 0 29 -10.5t25.5 -25.5t21 -32t15.5 -29q-16 1 -33 9t-31 20t-24 27.5t-11 31.5z" />
    <glyph glyph-name="Icircumflex" unicode="&#xce;" horiz-adv-x="416" 
d="M244 42q24 0 44 9.5t35 25.5t23.5 38t10.5 46q8 -27 5 -55.5t-16.5 -51.5t-37 -38.5t-56.5 -17.5q-26 0 -52.5 8t-55.5 18q-27 9 -47.5 6.5t-34.5 -9.5q-17 -8 -29 -20q14 40 50 60.5t79 10.5l-5 543q-29 14 -64.5 9.5t-59.5 -28.5q11 32 38.5 53t62.5 21q15 0 29 -5.5
t27.5 -11.5t27 -11.5t29.5 -5.5q22 0 42 10t35 26.5t24 38t9 44.5q3 -9 5 -21t2 -23q0 -23 -9.5 -46t-26 -40.5t-39 -27t-47.5 -4.5l2 -551v0zM257.484 688.688l-55.7422 55.9961l-55.7422 -55.9961h-13.9355l69.6777 69.9951l69.3301 -69.9951h-13.5879v0z" />
    <glyph glyph-name="Idieresis" unicode="&#xcf;" horiz-adv-x="429" 
d="M248.09 39.8359q22.7676 0 41.7412 9.01074t33.2031 24.1865q14.2305 15.1758 22.2939 36.043q8.06348 20.8662 9.96094 43.6299q7.58984 -25.6084 4.74316 -52.6406q-2.8457 -27.0322 -15.6533 -48.8467q-12.8066 -21.8154 -35.1006 -36.5176
q-22.2939 -14.7012 -53.5996 -16.5977q-24.665 0 -49.8047 7.58789t-52.6514 17.0723q-25.6143 8.53613 -45.0615 6.16504q-19.4482 -2.37109 -32.7295 -9.01074q-16.127 -7.58789 -27.5117 -18.9697q13.2812 37.9395 47.4336 57.3838q34.1523 19.4434 74.9453 9.95898
l-4.74414 515.028q-27.5107 13.2783 -61.1885 9.01074q-33.6777 -4.26855 -56.4463 -27.0322q10.4355 30.3516 36.5244 50.2695q26.0879 19.9189 59.291 19.9189q14.2305 0 27.5117 -5.2168t26.0889 -10.9082q12.8066 -5.69043 25.6133 -10.9072
q12.8076 -5.2168 27.9863 -5.2168q20.8711 0 39.8438 9.48535q18.9736 9.48438 33.2041 25.1348q14.2295 15.6494 22.7676 36.042t8.53809 42.208q2.8457 -8.53711 4.74316 -19.918q1.89746 -11.3828 1.89746 -21.8154q0 -21.8154 -9.0127 -43.6309
q-9.01172 -21.8154 -24.665 -38.4131q-15.6533 -16.5986 -36.998 -25.6094t-45.0615 -4.26855l1.89746 -522.616v0zM164.146 704.762q0 -19.584 -9.8291 -32.8027q-9.83008 -13.2188 -23.5918 -13.2188t-23.0996 13.2188t-9.33789 32.8027q0 18.6045 9.33789 32.3135
t23.0996 13.709t23.5918 -13.709q9.8291 -13.709 9.8291 -32.3135zM329.286 706.721q0 -19.584 -9.83008 -32.8027q-9.8291 -13.2197 -23.5908 -13.2197t-23.1006 13.2197q-9.33789 13.2188 -9.33789 32.8027q0 18.6045 9.33789 32.3125q9.33887 13.709 23.1006 13.709
t23.5908 -13.709q9.83008 -13.708 9.83008 -32.3125z" />
    <glyph glyph-name="Ograve" unicode="&#xd2;" horiz-adv-x="570" 
d="M521.65 315.438q0 -47.7773 -11.0625 -92.0156t-30.5332 -81.3984q-19.4697 -37.1602 -46.4629 -65.915q-26.9922 -28.7549 -58.8525 -46.4502q-45.1357 -24.7734 -95.5811 -24.7734t-95.5811 24.7734q-31.8604 17.6953 -58.8535 46.4502t-46.4629 65.915
t-30.5332 81.3984q-11.0625 44.2383 -11.0625 92.0156q0 61.9336 17.7002 118.116t49.5605 99.0938t76.5537 68.5693q44.6924 25.6582 98.6787 25.6582q56.6406 0 101.333 -28.3125q44.6934 -28.3125 76.1113 -72.9932t48.2334 -100.421q16.8145 -55.7402 16.8145 -109.711z
M279.158 46.4688q41.5957 0 71.2432 27.4277t48.2334 68.127q18.585 40.6992 27.4346 86.707q8.85059 46.0078 8.85059 82.2832q0 35.3906 -7.52246 80.0713t-25.666 84.4951q-18.1426 39.8145 -48.2324 68.5693q-30.0908 28.7549 -74.3408 32.2939
q-42.4805 -2.6543 -72.1289 -30.082q-29.6475 -27.4277 -48.2324 -66.7998q-18.5859 -39.3721 -26.9932 -84.4951t-8.40723 -84.0527q0 -33.6211 7.96484 -78.3018t26.1074 -85.8223t47.791 -69.8965q29.6475 -28.7549 73.8984 -30.5244zM234 758q0 8 8 9q15 0 29 -10.5
t25.5 -25.5t21 -32t15.5 -29q-16 1 -33 9t-31 20t-24 27.5t-11 31.5z" />
    <glyph glyph-name="Oacute" unicode="&#xd3;" horiz-adv-x="595" 
d="M257 652q6 12 15.5 29t21 32t25.5 25.5t29 10.5q8 -1 8 -9q-2 -16 -11.5 -31.5t-23.5 -27.5t-31 -20t-33 -9zM539 309q0 54 -16.5 109.5t-48 100t-76 72.5t-100.5 28q-54 0 -98 -25.5t-76 -68t-49.5 -99t-17.5 -117.5q0 -48 10.5 -91.5t30 -80t46.5 -65.5t59 -47
q22 -11 45.5 -17.5t49.5 -6.5q25 0 48.5 6.5t45.5 17.5q32 18 59 47t46.5 65.5t30.5 80t11 91.5zM298 42q-44 2 -73.5 30.5t-47.5 69t-26 85.5t-8 78q0 39 8.5 84t27 84t48 66t71.5 30q44 -4 73.5 -32.5t47.5 -68t25.5 -84t7.5 -79.5q0 -36 -8.5 -82t-27 -86t-48 -67.5
t-70.5 -27.5z" />
    <glyph glyph-name="Ocircumflex" unicode="&#xd4;" horiz-adv-x="619" 
d="M552.82 313.436q0 -48.084 -11.1318 -92.6055q-11.1309 -44.5225 -30.7217 -81.9209q-19.5918 -37.3984 -46.752 -66.3379t-59.2178 -46.748q-45.416 -24.9326 -96.1748 -24.9326t-96.1738 24.9326q-32.0586 17.8086 -59.2188 46.748t-46.752 66.3379
q-19.5908 37.3984 -30.7217 81.9209q-11.1318 44.5215 -11.1318 92.6055q0 62.3311 17.8105 118.874q17.8096 56.543 49.8682 99.7295q32.0576 43.1865 77.0283 69.0088q44.9707 25.8232 99.291 25.8232q56.9922 0 101.963 -28.4941t76.583 -73.4609
q31.6133 -44.9678 48.5322 -101.065q16.9199 -56.0977 16.9199 -110.415zM308.822 42.7412q41.8535 0 71.6855 27.6035t48.5322 68.5645q18.7012 40.96 27.6055 87.2627q8.90527 46.3037 8.90527 82.8115q0 35.6172 -7.56934 80.585q-7.56934 44.9668 -25.8242 85.0371
q-18.2559 40.0703 -48.5322 69.0098q-30.2773 28.9385 -74.8027 32.501q-42.7441 -2.67188 -72.5762 -30.2754t-48.5322 -67.2285q-18.7002 -39.624 -27.1602 -85.0371q-8.45996 -45.4121 -8.45996 -84.5918q0 -33.8369 8.01465 -78.8037q8.01465 -44.9678 26.2695 -86.373
q18.2559 -41.4062 48.0879 -70.3447q29.8311 -28.9395 74.3564 -30.7207zM396.373 641.074l-85.0098 84.8047l-85.0098 -84.8047h-21.2529l106.263 106.006l105.73 -106.006h-20.7207v0z" />
    <glyph glyph-name="Otilde" unicode="&#xd5;" horiz-adv-x="631" 
d="M575.184 329.979q0 -50.6221 -11.7236 -97.4941q-11.7236 -46.8711 -32.3584 -86.2441q-20.6348 -39.3721 -49.2412 -69.8389t-62.3721 -49.2158q-47.834 -26.248 -101.296 -26.248t-101.297 26.248q-33.7646 18.749 -62.3721 49.2158q-28.6064 30.4668 -49.2412 69.8389
q-20.6338 39.373 -32.3584 86.2441q-11.7236 46.8721 -11.7236 97.4941q0 65.6211 18.7578 125.148q18.7588 59.5273 52.5244 104.993t81.1309 72.6514t104.579 27.1855q60.0273 0 107.393 -29.998t80.6611 -77.3389q33.2969 -47.3408 51.1172 -106.399t17.8203 -116.242z
M318.192 44.9971q44.082 0 75.5029 29.0605q31.4199 29.0605 51.1172 72.1826q19.6963 43.1221 29.0752 91.8691q9.37988 48.7471 9.37988 87.1816q0 37.498 -7.97266 84.8389t-27.2002 89.5254t-51.1172 72.6514t-78.7852 34.2168q-45.0205 -2.8125 -76.4414 -31.873
t-51.1172 -70.7773q-19.6963 -41.7158 -28.6064 -89.5254q-8.91016 -47.8086 -8.91016 -89.0566q0 -35.6221 8.44141 -82.9629q8.44043 -47.3408 27.668 -90.9316t50.6484 -74.0576t78.3174 -32.3418zM140.166 681.438q12.3701 33.6357 42.0566 54.9648
q29.6875 21.3301 68.4463 21.3301q16.4922 0 31.748 -5.33203q15.2568 -5.33301 30.0996 -12.3057q14.8438 -6.97363 29.6875 -12.3057q14.8438 -5.33301 32.1611 -5.33301q24.7393 0 46.1807 10.2549q21.4404 10.2549 37.9336 27.4824q16.4932 17.2285 25.9766 39.3779
q9.4834 22.1504 9.4834 46.7617q9.89551 -29.5332 5.77246 -58.6572q-4.12305 -29.123 -19.792 -52.9141q-15.668 -23.79 -41.6445 -39.3779q-25.9766 -15.5869 -59.7871 -18.0479q-12.3691 0.820312 -29.6865 4.10156q-14.8438 2.46094 -37.1094 8.2041
q-22.2656 5.74219 -51.1279 14.7666t-51.1279 6.97363q-22.2656 -2.05176 -37.9336 -8.61426q-18.1426 -8.2041 -31.3369 -21.3301z" />
    <glyph glyph-name="Odieresis" unicode="&#xd6;" horiz-adv-x="619" 
d="M558.52 321.965q0 -49.3926 -11.4277 -95.126t-31.542 -84.1494q-20.1133 -38.417 -47.9971 -68.1436q-27.8848 -29.7266 -60.7979 -48.0205q-46.626 -25.6104 -98.7383 -25.6104t-98.7383 25.6104q-32.9131 18.2939 -60.7979 48.0205t-47.998 68.1436
q-20.1133 38.416 -31.541 84.1494q-11.4287 45.7334 -11.4287 95.126q0 64.0273 18.2852 122.108q18.2852 58.082 51.1982 102.443q32.9121 44.3623 79.082 70.8877q46.1689 26.5254 101.938 26.5254q58.5117 0 104.681 -29.2695q46.1699 -29.2695 78.625 -75.4609
q32.4561 -46.1904 49.8271 -103.814q17.3701 -57.625 17.3701 -113.42zM308.017 43.9043q42.9697 0 73.5967 28.3545q30.627 28.3555 49.8262 70.4307q19.1992 42.0742 28.3418 89.6377q9.14258 47.5625 9.14258 85.0645q0 36.5869 -7.77148 82.7773
q-7.77051 46.1914 -26.5127 87.3516t-49.8262 70.8877q-31.085 29.7266 -76.7969 33.3848q-43.8838 -2.74414 -74.5107 -31.0986q-30.6279 -28.3545 -49.8271 -69.0576t-27.8838 -87.3516q-8.68555 -46.6484 -8.68555 -86.8936q0 -34.7578 8.22852 -80.9482
q8.22754 -46.1914 26.9697 -88.7236t49.3691 -72.2588q30.627 -29.7275 76.3398 -31.5566zM254 702q0 -20 -10 -33.5t-24 -13.5t-23.5 13.5t-9.5 33.5q0 19 9.5 33t23.5 14t24 -14t10 -33zM422 704q0 -20 -10 -33.5t-24 -13.5t-23.5 13.5t-9.5 33.5q0 19 9.5 33t23.5 14
t24 -14t10 -33z" />
    <glyph glyph-name="Ugrave" unicode="&#xd9;" horiz-adv-x="635" 
d="M470.471 670.172q28.1191 0 52.0205 -11.2432t40.7734 -30.4512q16.8721 -19.207 25.3076 -44.5049t5.62402 -53.4062l-6.56152 -305.446q-1.87402 -21.5498 -6.56055 -44.9736q-4.6875 -19.6758 -14.0605 -44.5049t-28.1191 -48.2529
q-12.1855 -14.9912 -27.6504 -29.5137q-15.4658 -14.5234 -36.5557 -26.2354t-47.335 -19.207q-26.2441 -7.49609 -59.0508 -7.49609q-1.875 -0.936523 -7.0293 -0.467773q-5.15527 0.467773 -11.7168 0.467773h-15.9346q-49.6777 5.62207 -88.5762 34.668
q-38.8984 29.0449 -59.5195 72.1445q-5.62402 11.2441 -9.37305 25.2979q-3.75 12.1807 -6.56152 28.5771q-2.8125 16.3965 -2.8125 36.0723v341.051q0 16.8643 -6.56055 32.793q-6.56152 15.9277 -18.7461 27.6396q-12.1855 11.7119 -28.1201 18.7393t-34.6807 7.02734
q-29.0566 0 -50.6152 -15.9287v2.81152q0.9375 0 0.9375 1.87402l-1.875 -1.87402v1.87402q16.8721 24.3604 43.5859 39.8203q26.7129 15.459 59.5195 15.459q39.3672 0 70.2988 -21.5498t44.9912 -56.2168q10.3105 -23.4238 10.3105 -49.6582
q-0.9375 -11.2432 -1.875 -40.2891t-1.875 -66.5234q-0.936523 -37.4775 -1.40527 -79.1719t0 -77.7676q0.46875 -36.0723 2.34277 -63.2441q1.875 -27.1709 5.62402 -35.6035q8.43555 -19.6768 22.0273 -40.2891q13.5908 -20.6133 30.4629 -37.9463
q16.8711 -17.334 37.4922 -28.5771q20.6211 -11.2441 43.1162 -11.2441q18.7471 0 39.3682 8.43262q20.6201 8.43262 37.9609 22.4873q17.3398 14.0537 28.5879 31.3877t11.248 34.1992v18.2705q0 17.333 -0.46875 44.0361t-0.46875 60.4336v69.334
q-0.9375 82.4521 -0.9375 186.453q0 18.7393 -7.0293 35.1357q-7.03027 16.3965 -19.2148 28.1084q-12.1855 11.7119 -28.5889 18.7393q-16.4023 7.02734 -34.2119 7.02734q-28.1191 0 -51.5527 -15.9287l0.9375 2.81152q16.8721 24.3604 43.5859 39.3516
q26.7129 14.9912 59.5195 14.9912zM230 745q0 8 8 9q15 0 29 -10.5t25.5 -25.5t21 -32t15.5 -29q-16 1 -33 9t-31 20t-24 27.5t-11 31.5z" />
    <glyph glyph-name="Ucircumflex" unicode="&#xdb;" horiz-adv-x="566" 
d="M421.306 602.461q25.5449 0 47.2578 -10.2188q21.7139 -10.2188 37.04 -27.6758q15.3271 -17.457 22.9912 -40.4492q7.66309 -22.9922 5.1084 -48.5391l-5.95996 -277.609q-1.70312 -19.5859 -5.96094 -40.875q-4.25684 -17.8828 -12.7725 -40.4492
q-8.51465 -22.5664 -25.5449 -43.8555q-11.0693 -13.625 -25.1191 -26.8242t-33.209 -23.8438q-19.1582 -10.6445 -43.001 -17.457q-23.8418 -6.8125 -53.6445 -6.8125q-1.70215 -0.851562 -6.38574 -0.425781t-10.6436 0.425781h-14.4756
q-45.1299 5.10938 -80.4668 31.5078q-35.3379 26.3984 -54.0703 65.5703q-5.10938 10.2188 -8.51562 22.9922q-3.40625 11.0703 -5.95996 25.9727q-2.55469 14.9023 -2.55469 32.7852v309.969q0 15.3281 -5.96094 29.8047q-5.95996 14.4766 -17.0303 25.1211
q-11.0693 10.6445 -25.5449 17.0312t-31.5049 6.38672q-26.3965 0 -45.9814 -14.4766v2.55469q0.851562 0 0.851562 1.70312l-1.70312 -1.70312v1.70312q15.3271 22.1406 39.5947 36.1914t54.0703 14.0508q35.7637 0 63.8633 -19.5859q28.0986 -19.5859 40.8721 -51.0938
q9.36621 -21.2891 9.36621 -45.1328q-0.851562 -10.2188 -1.70312 -36.6172t-1.70312 -60.4609t-1.27734 -71.957t0 -70.6797t2.12891 -57.4805t5.10938 -32.3594q7.66309 -17.8828 20.0098 -36.6172t27.6738 -34.4883t34.0605 -25.9727q18.7324 -10.2188 39.1689 -10.2188
q17.0303 0 35.7627 7.66406q18.7334 7.66406 34.4863 20.4375t25.9707 28.5273t10.2178 31.082v16.6055t-0.425781 40.0234t-0.425781 54.9258v63.0156q-0.851562 74.9375 -0.851562 169.461q0 17.0312 -6.38574 31.9336q-6.38672 14.9023 -17.4561 25.5469
t-25.9707 17.0312t-31.0801 6.38672q-25.5449 0 -46.832 -14.4766l0.850586 2.55469q15.3271 22.1406 39.5957 35.7656q24.2676 13.625 54.0703 13.625zM399.581 635.681l-93.8379 93.6035l-93.8379 -93.6035h-23.459l117.297 117.005l116.711 -117.005h-22.873v0z" />
    <glyph glyph-name="Yacute" unicode="&#xdd;" horiz-adv-x="445" 
d="M185 646q6 12 15.5 29t21 32t25.5 25.5t29 10.5q8 -1 8 -9q-2 -16 -11.5 -31.5t-23.5 -27.5t-31 -20t-33 -9zM252 48l-1 268l162 384h-79l-112 -300l-112 300h-79l161 -381l-1 -272q-29 -2 -41 -10.5t-18 -19.5q-2 -3 -2.5 -6t-2.5 -6q1 2 3 4t4.5 3.5t5.5 3.5
q6 4 15.5 5.5t21.5 -3.5t21 -7.5t15 -3.5q7 -1 13 -1q13 0 35.5 6.5t32.5 18.5q7 8 8.5 16t1.5 19q0 7 -3.5 16t-5.5 14q0 -9 -0.5 -16.5t-4.5 -13.5t-13 -10.5t-25 -7.5z" />
    <glyph glyph-name="ecircumflex" unicode="&#xea;" horiz-adv-x="469" 
d="M80 249v-4q0 -30 7.5 -66.5t24 -68.5t43 -54t64.5 -23q25 1 46 12t37 29t27 40.5t17 45.5h76q-11 -31 -30 -60t-45 -51.5t-58.5 -36t-69.5 -13.5q-47 0 -86.5 21.5t-68.5 56.5t-45.5 80t-16.5 92q0 42 15 86.5t43 81t68 59.5t91 23h1q48 0 87.5 -20.5t68 -55t44 -80
t15.5 -94.5h-355zM219 458q-30 0 -52.5 -15t-39 -38t-26.5 -52t-16 -56l269 3q-5 25 -15 52.5t-26.5 50.5t-39.5 38.5t-54 16.5zM358.761 524.287l-102.656 102.402l-102.656 -102.402h-25.6641l128.32 128.003l127.679 -128.003h-25.0225v0z" />
    <glyph glyph-name="icircumflex" unicode="&#xee;" horiz-adv-x="356" 
d="M236 63q0 -18 -14 -30v476h-71v-475q-23 -3 -31 -25q4 4 10 7q5 2 12.5 3t17.5 -2q20 -7 28 -8q5 -1 10 -1q17 0 28.5 11.5t11.5 28.5q0 7 -2 15zM290 515l-105 105l-105 -105h-26l131 131l131 -131h-26z" />
    <glyph glyph-name="ocircumflex" unicode="&#xf4;" horiz-adv-x="587" 
d="M514 261q0 -46 -16.5 -91t-46 -80.5t-71 -57.5t-91.5 -22q-47 0 -89 21q-30 14 -55 37t-43 53t-28 65.5t-10 74.5q0 46 16.5 91t46 80t71 57t91.5 22q48 0 88.5 -21t70 -55.5t47 -79.5t19.5 -94zM289 44q37 0 64 20.5t45 52t26.5 69t8.5 71.5q0 31 -8 68t-25.5 68.5
t-44.5 53t-66 23.5q-37 0 -64 -21t-45 -52.5t-27 -69t-9 -70.5q0 -32 8 -68.5t25.5 -68t45 -53.5t66.5 -23zM418.847 539.062l-123.906 124.004l-123.906 -124.004h-30.9766l154.883 155.005l154.108 -155.005h-30.2021v0z" />
    <glyph glyph-name="ucircumflex" unicode="&#xfb;" horiz-adv-x="550" 
d="M514 53q3 -8 3 -16q0 -14 -8 -25q-14 -17 -34.5 -16.5t-41.5 7.5q-5 2 -9.5 2.5t-8.5 0.5v94q-7 -23 -20 -43t-30.5 -35.5t-39.5 -24.5t-46 -9q-29 0 -55 12.5t-45 33t-30.5 47.5t-12.5 56v269q0 28 -20 47.5t-48 19.5q-23 0 -39 -12l1 2q13 19 33 30t45 11
q39 0 65 -26.5t26 -65.5v-231q0 -23 7.5 -49t21.5 -48t32.5 -37t41.5 -15q21 0 41.5 12.5t37 32t27.5 43t14 44.5q0 94 -0.5 147.5t-2 80.5t-3.5 35t-4 12q-9 14 -23 22.5t-31 8.5q-21 0 -37 -12l1 2q12 19 31.5 30.5t42.5 11.5q4 0 7.5 -0.5t8.5 -1.5q29 -5 51.5 -27.5
t22.5 -53.5v-399q14 -5 20.5 7t7.5 26zM403.799 554.963l-117.49 117.598l-117.49 -117.598h-29.3721l146.862 146.997l146.129 -146.997h-28.6387v0z" />
    <glyph glyph-name="yacute" unicode="&#xfd;" horiz-adv-x="457" 
d="M219 542q6 12 15.5 29t21 32t25.5 25.5t29 10.5q8 -1 8 -9q-2 -16 -11.5 -31.5t-23.5 -27.5t-31 -20t-33 -9zM338 500l-112 -306l-112 306h-76l155 -379q-6 -31 -14.5 -78t-16.5 -92q-10 -53 -20 -110q-5 -28 -28.5 -43t-52.5 -10q-22 3 -38 19v-2q10 -21 29 -35.5
t44 -19.5q20 -4 39.5 0t35 13.5t26.5 25t15 34.5q9 54 17.5 106.5t15.5 95.5q8 49 14 95l155 380h-76z" />
    <glyph glyph-name="ydieresis" unicode="&#xff;" horiz-adv-x="465" 
d="M438 500l-155 -380q-6 -46 -14 -95q-7 -43 -15.5 -95.5t-17.5 -106.5q-4 -19 -15 -34.5t-26.5 -25t-35 -13.5t-39.5 0q-25 5 -44 19.5t-29 35.5v2q16 -16 38 -19q29 -5 52.5 10t28.5 43q10 57 20 110q8 45 16.5 92t14.5 78l-155 379h76l112 -306l112 306h76zM201 588
q0 -20 -10 -33.5t-24 -13.5t-23.5 13.5t-9.5 33.5q0 19 9.5 33t23.5 14t24 -14t10 -33zM369 590q0 -20 -10 -33.5t-24 -13.5t-23.5 13.5t-9.5 33.5q0 19 9.5 33t23.5 14t24 -14t10 -33z" />
    <glyph glyph-name="Uacute" unicode="&#xda;" horiz-adv-x="660" 
d="M269 655q6 12 15.5 29t21 32t25.5 25.5t29 10.5q8 -1 8 -9q-2 -16 -11.5 -31.5t-23.5 -27.5t-31 -20t-33 -9zM479 682q-33 0 -60.5 -15t-44.5 -41l-1 -2q24 16 53 16q18 0 34.5 -7t29 -19.5t20 -29t7.5 -35.5q0 -107 1 -191v-70.5t0.5 -62.5t0.5 -45.5v-18.5
q0 -18 -11.5 -35.5t-29.5 -31.5t-39 -23t-40 -9q-23 0 -44 11.5t-38.5 29t-31 39t-22.5 41.5q-4 9 -6 36.5t-2.5 65t0 80t1.5 81t2 68t2 41.5q0 26 -11 50q-14 35 -45.5 57.5t-72.5 22.5q-33 0 -60.5 -15.5t-44.5 -41.5v-2l2 2q0 -2 -1 -2v-2q22 16 51 16q19 0 35.5 -7
t29 -19t19.5 -28t7 -34v-350q0 -20 2.5 -37t6.5 -29q4 -15 10 -26q21 -44 60.5 -73.5t90.5 -35.5h16q6 0 12 -0.5t8 0.5q34 0 61 7.5t48 19.5t37 27t28 30q19 24 29 49.5t15 45.5q5 24 6 46l7 313q3 28 -6 54t-26 46t-41.5 31.5t-53.5 11.5z" />
    <glyph glyph-name="Acircumflex" unicode="&#xc2;" horiz-adv-x="548" 
d="M297.872 575.158l196.157 -573.515h-70.584l-67.3008 213.63q-7.38672 -16.4326 -18.4668 -30.8115t-25.0322 -25.8828q-13.9521 -11.5029 -30.3672 -18.0762t-33.6504 -6.57324q-9.84863 0.822266 -22.9805 3.28711q-11.4902 1.64258 -27.9053 5.75098t-38.5752 10.6816
l-32.8291 -153.649l-72.2256 0.821289l53.3486 166.796q-22.9814 4.1084 -39.3955 -0.410156q-16.415 -4.51953 -27.085 -11.0928q-13.1318 -8.21582 -21.3389 -18.8975q12.3105 34.5088 40.627 57.1045q28.3154 22.5957 65.248 22.5957l102.593 358.241h69.7627z
M244.524 180.764q31.1875 0 54.9893 19.7207q23.8018 19.7188 39.3955 48.4775l-81.2529 262.93l-81.2539 -305.656q16.415 -8.2168 31.5986 -16.4326q15.1836 -8.2168 36.5234 -9.03906zM401.941 580.2l-136.738 136.797l-136.738 -136.797h-34.1846l170.923 170.996
l170.068 -170.996h-33.3301v0z" />
    <glyph glyph-name="Atilde" unicode="&#xc3;" horiz-adv-x="560" 
d="M315.872 575.158l196.157 -573.515h-70.584l-67.3008 213.63q-7.38672 -16.4326 -18.4668 -30.8115t-25.0322 -25.8828q-13.9521 -11.5029 -30.3672 -18.0762t-33.6504 -6.57324q-9.84863 0.822266 -22.9805 3.28711q-11.4902 1.64258 -27.9053 5.75098t-38.5752 10.6816
l-32.8291 -153.649l-72.2256 0.821289l53.3486 166.796q-22.9814 4.1084 -39.3955 -0.410156q-16.415 -4.51953 -27.085 -11.0928q-13.1318 -8.21582 -21.3389 -18.8975q12.3105 34.5088 40.627 57.1045q28.3154 22.5957 65.248 22.5957l102.593 358.241h69.7627z
M262.524 180.764q31.1875 0 54.9893 19.7207q23.8018 19.7188 39.3955 48.4775l-81.2529 262.93l-81.2539 -305.656q16.415 -8.2168 31.5986 -16.4326q15.1836 -8.2168 36.5234 -9.03906zM114.871 612.127q10.292 28.0615 34.9941 45.8574q24.7012 17.7959 56.9512 17.7959
q13.7227 0 26.417 -4.44922q12.6934 -4.44824 25.0449 -10.2666q12.3506 -5.81738 24.7012 -10.2666t26.7607 -4.44922q20.584 0 38.4238 8.55566q17.8408 8.55566 31.5635 22.9297q13.7236 14.373 21.6143 32.8535q7.89062 18.4795 7.89062 39.0127
q8.23438 -24.6396 4.80273 -48.9375q-3.43066 -24.2979 -16.4668 -44.1475q-13.0371 -19.8486 -34.6514 -32.8535q-21.6143 -13.0039 -49.7461 -15.0576q-10.293 0.68457 -24.7021 3.42285q-12.3506 2.05273 -30.877 6.84375t-42.542 12.3203t-42.542 5.81738
q-18.5254 -1.71094 -31.5625 -7.18652q-15.0957 -6.84375 -26.0742 -17.7949z" />
    <glyph glyph-name="Iacute" unicode="&#xcd;" horiz-adv-x="393" 
d="M166 655q6 12 15.5 29t21 32t25.5 25.5t29 10.5q8 -1 8 -9q-2 -16 -11.5 -31.5t-23.5 -27.5t-31 -20t-33 -9zM208 40l-2 529q24 -5 45 4t36 25.5t24 38.5t9 45q0 10 -2 22t-5 20q0 -22 -8 -42.5t-22 -36.5t-32.5 -25.5t-39.5 -9.5q-15 0 -27.5 5t-25 11.5t-25.5 11.5
t-27 5q-32 0 -57 -20t-36 -51q22 23 55 27.5t60 -9.5l4 -521q-40 10 -73 -10t-46 -58q11 13 27 20q13 6 32 8t44 -6q26 -9 51 -17t49 -8q30 2 52 16.5t34.5 37t15.5 49.5t-5 53q-2 -23 -10 -44t-22 -36.5t-32.5 -24.5t-40.5 -9z" />
    <glyph glyph-name="plus" unicode="+" horiz-adv-x="449" 
d="M423 385v-55h-173v-172h-54v172h-173v55h173v173h54v-173h173v0z" />
    <glyph glyph-name="plusminus" unicode="&#xb1;" 
d="M603 229h-173v-172h173v-55h-400v55h173v172h-173v55h173v173h54v-173h173v-55v0z" />
    <glyph glyph-name="exclamdown" unicode="&#xa1;" horiz-adv-x="267" 
d="M99 667q0 17 9 29.5t21 12.5q13 0 22 -12.5t9 -29.5q0 -18 -9 -30.5t-22 -12.5q-12 0 -21 12.5t-9 30.5zM132 585l58 -573h-122z" />
    <glyph glyph-name="less" unicode="&#x3c;" horiz-adv-x="310" 
d="M251 517l-186 -118l186 -118v-29l-233 147l233 146v-28v0z" />
    <glyph glyph-name="greater" unicode="&#x3e;" horiz-adv-x="337" 
d="M64 274l187 118l-187 118v29l233 -147l-233 -146v28v0z" />
    <glyph glyph-name="guillemotleft" unicode="&#xab;" horiz-adv-x="514" 
d="M289 488l-186 -118l186 -118v-29l-233 147l233 146v-28v0zM414 498l-186 -118l186 -118v-29l-233 147l233 146v-28v0z" />
    <glyph glyph-name="acute" unicode="&#xb4;" 
d="M321 541q6 12 15.5 29t21 32t25.5 25.5t29 10.5q8 -1 8 -9q-2 -16 -11.5 -31.5t-23.5 -27.5t-31 -20t-33 -9z" />
    <glyph glyph-name="trademark" unicode="&#x2122;" horiz-adv-x="1703" 
d="M725 718q2 -5 3 -12t1 -13q0 -27 -18 -46t-44 -19h-2v-222h-34v229l-23 7q-15 5 -26 4t-19 -5q-9 -4 -16 -12q7 18 21.5 29.5t33.5 11.5q18 0 29 -7q8 -4 16 -7.5t17 -3.5q25 0 43 20t18 46zM993 431q2 -4 2 -7q0 -11 -11 -16q-1 -1 -1.5 -1t-1.5 -1h-5h-4q-2 1 -5.5 1.5
t-8.5 2.5l-3 1q-5 0 -11 -2q-3 -1 -4 -3q3 10 15 12v173l-72 -184h-33l-75 184l-1 -175q7 6 7 15q2 -4 2 -7q0 -9 -9 -16q-2 -1 -2.5 -1t-2.5 -1h-5h-4q-2 1 -5.5 1.5t-7.5 2.5h-2q-5 1 -7.5 0.5t-4.5 -1.5q-3 -1 -4 -3q3 12 16 12v246h29l91 -220l91 220h29l-1 -249
q9 6 9 16z" />
    <glyph glyph-name="asterisk" unicode="*" horiz-adv-x="280" 
d="M139 521l5 -107l83 68l25 -43l-101 -37l90 -58l-32 -36l-68 83l-27 -104l-45 21l60 89l-108 -6l6 48l104 -28l-40 100l48 10v0z" />
    <glyph glyph-name="degree" unicode="&#xb0;" 
d="M443 507q-27 0 -44 25q-17 23 -17 56q0 32 17 57q16 24 44 24q26 0 43 -24q17 -25 17 -57q0 -33 -17 -56q-17 -25 -43 -25zM443 653q-19 0 -32 -19t-13 -46t13 -46t32 -19q18 0 31 19t13 46t-13 46t-31 19z" />
    <glyph glyph-name="registered" unicode="&#xae;" horiz-adv-x="716" 
d="M347 667q64 0 120 -24t97.5 -65.5t65.5 -97.5t24 -120t-24 -120t-65.5 -97.5t-97.5 -65.5t-120 -24t-120 24t-97.5 65.5t-65.5 97.5t-24 120t24 120t65.5 97.5t97.5 65.5t120 24zM347 84q57 0 107.5 21.5t88 59t59 88t21.5 107.5t-21.5 107.5t-59 88t-88 59t-107.5 21.5
t-107.5 -21.5t-88 -59t-59 -88t-21.5 -107.5t21.5 -107.5t59 -88t88 -59t107.5 -21.5zM461 196q9 0 17 6l-1 -1q-10 -16 -33 -18q-17 -1 -31 9t-15 24q-1 24 -2 43q-1 17 -1 30.5v14.5q-2 17 -15.5 31.5t-33.5 13.5h-3q-5 -1 -10 -1.5t-10 -0.5h-1q-16 0 -34 5v-154
q7 6 7 16q2 -4 2 -8q0 -10 -9 -17q-5 -5 -13 -5q-2 0 -5 1t-7 1.5t-9 2.5q-2 1 -6 1q-6 0 -12 -2q-3 -1 -4 -3q5 11 16 13v334h40q18 5 34 5q24 0 44.5 -7.5t35.5 -20.5t24 -30.5t9 -36.5q0 -23 -11.5 -42t-31.5 -32q-2 -2 -6 -4q15 -6 25.5 -17.5t12.5 -26.5l7 -100
q1 -11 9 -18t21 -6zM325 363q15 0 27.5 6.5t22 17.5t15 25.5t5.5 30.5q0 32 -20.5 56.5t-49.5 24.5q-22 0 -37 -7v-146q15 -8 37 -8z" />
    <glyph glyph-name="copyright" unicode="&#xa9;" horiz-adv-x="700" 
d="M338 668q63 0 119 -24t98 -65.5t66 -97.5t24 -120t-24 -120t-66 -97.5t-98 -65.5t-119 -24q-64 0 -120 24t-97.5 65.5t-65.5 97.5t-24 120t24 120t65.5 97.5t97.5 65.5t120 24zM338 85q57 0 107.5 21.5t88 59t59 88t21.5 107.5t-21.5 107.5t-59 88t-88 59t-107.5 21.5
t-107.5 -21.5t-88 -59t-59 -88t-21.5 -107.5t21.5 -107.5t59 -88t88 -59t107.5 -21.5zM359 208q20 0 37 5.5t30 21.5v-37q-30 -14 -64 -14t-63.5 14t-51.5 38t-35 56t-13 69t13 69t35 56t51.5 38t63.5 14q35 0 64 -15v-42q-13 16 -30 22t-37 6q-21 0 -39.5 -12.5
t-32.5 -33.5t-22 -48t-8 -57q0 -29 8 -56t22 -48t32.5 -33.5t39.5 -12.5z" />
    <glyph glyph-name="D" unicode="D" horiz-adv-x="575" 
d="M54 673q84 33 167 22t149 -56.5t107.5 -120t41.5 -169.5q0 -72 -25 -135t-68.5 -110t-101.5 -74t-124 -27h-36t-38 1t-37 4t-32 9zM136 44q57 -21 109.5 -1.5t92 65t63.5 110t24 134.5q0 71 -25.5 132t-67.5 103t-96 60.5t-111 3.5z" />
    <glyph glyph-name="Ydieresis" unicode="&#x178;" horiz-adv-x="452" 
d="M258.106 38.0684q14.6992 2.75391 22.9678 6.88574q8.26758 4.13184 11.9424 9.63965q3.6748 5.50879 4.13477 12.3945q0.458984 6.88574 0.458984 15.1484q1.83691 -4.59082 5.05273 -12.8535t3.21582 -14.6895q0 -10.0986 -1.37793 -17.4434t-7.80957 -14.6895
q-9.18652 -11.0176 -29.8574 -16.9844q-20.6709 -5.96777 -32.6143 -5.96777q-5.51172 0 -11.9424 0.917969q-5.5127 0.917969 -13.7812 3.21289q-8.26758 2.2959 -19.293 6.88574q-11.0234 4.59082 -19.752 3.21387q-8.72754 -1.37793 -14.2393 -5.0498
q-2.75684 -1.83594 -5.05273 -3.21289q-2.29688 -1.37793 -4.13477 -3.21387q-1.83691 -1.83594 -2.75586 -3.67188q1.83691 2.75391 2.29688 5.50781q0.458984 2.75488 2.29688 5.50879q5.51172 10.0996 16.5361 17.9033t37.667 9.63965l0.918945 249.721l-147.911 349.793
h72.5771l102.895 -275.428l102.895 275.428h72.5781l-148.83 -352.547l0.918945 -246.049v0zM177 701q0 -20 -10 -33.5t-24 -13.5t-23.5 13.5t-9.5 33.5q0 19 9.5 33t23.5 14t24 -14t10 -33zM345 703q0 -20 -10 -33.5t-24 -13.5t-23.5 13.5t-9.5 33.5q0 19 9.5 33t23.5 14
t24 -14t10 -33z" />
    <glyph glyph-name="oe" unicode="&#x153;" horiz-adv-x="788" 
d="M441 246q0 -29 6 -65.5t20.5 -69t39.5 -55.5t63 -25q24 0 43 11t33.5 29t25 40.5t17.5 45.5h71q-9 -31 -26.5 -60t-42.5 -51t-56 -35t-65 -13q-51 0 -93 28.5t-74 78.5q-28 -45 -72 -76t-101 -31q-47 0 -85.5 21.5t-66.5 56t-43.5 79t-15.5 91.5q0 44 14.5 88.5t42 80
t66.5 58t88 22.5q53 0 98 -30.5t75 -76.5q13 22 30.5 41.5t39 34t46 23t51.5 8.5h1q36 0 74.5 -23t69.5 -59t48 -80.5t10 -86.5h-332zM230 31q36 0 61.5 21t42 53t24 69t7.5 69q0 30 -7 66t-23 67.5t-42 53.5t-63 24q-36 0 -61.5 -21t-42 -52.5t-24 -68.5t-7.5 -69
q0 -30 7 -66t23 -68t41.5 -54t63.5 -24zM696 297q-4 24 -13 51t-24 50.5t-37 39t-52 16.5q-29 0 -50.5 -15.5t-37 -39t-25 -51.5t-13.5 -54z" />
    <glyph glyph-name="OE" unicode="&#x152;" horiz-adv-x="894" 
d="M689 58q28 0 52.5 11.5t43 31t29 45t10.5 52.5q5 -11 7 -25t2 -27q0 -29 -11 -54.5t-29.5 -44t-44 -29.5t-54.5 -11q-26 0 -52 7.5t-52.5 15.5t-53 13t-53.5 0q-27 -7 -44 -19q-9 -6 -15 -13q4 8 7 16.5t8 16.5q-26 -13 -51.5 -24t-57.5 -11q-62 0 -108.5 33.5t-78 85.5
t-47.5 113.5t-16 118.5q0 70 18 134t50.5 112.5t78.5 77t103 28.5h1q33 0 61.5 -11t55.5 -31q13 20 33 33t47 13q21 0 40.5 -7.5t39 -16t39.5 -16t42 -7.5q28 0 52.5 11.5t43 31t29 44.5t10.5 53q5 -11 7 -25.5t2 -27.5q0 -29 -11 -54.5t-29.5 -44t-44 -29.5t-54.5 -11
q-18 2 -39 6q-19 3 -44 9t-54 15l2 -266q14 -8 34 -12.5t38 -4.5q22 0 41 9t33.5 24t23 35t8.5 42q9 -27 5.5 -53t-17.5 -47t-37 -34.5t-53 -15.5q-19 -1 -38.5 0.5t-39.5 7.5l1 -240q5 -2 22.5 -7.5t38 -11.5t40 -10.5t30.5 -4.5zM330 56q45 0 74.5 32t47 78.5t24.5 98
t7 89.5q0 21 -2.5 51.5t-9 63.5t-18 66t-28.5 59t-40.5 42.5t-54.5 17.5q-30 0 -53.5 -15t-41.5 -40t-30 -57t-20 -65t-11.5 -65t-3.5 -57q0 -23 3 -54t10.5 -63.5t19.5 -64.5t30 -57.5t42 -42t55 -17.5z" />
    <glyph glyph-name="AE" unicode="&#xc6;" horiz-adv-x="1137" 
d="M608 37q29 0 55 11t45.5 30t31 43t11.5 51q5 -11 7.5 -24.5t2.5 -25.5q0 -28 -11.5 -52.5t-31.5 -42.5t-47 -28.5t-57 -10.5q-34 1 -71 12t-74 18.5t-73 4.5t-67 -31q10 26 24.5 47.5t37.5 33.5v127q-17 -18 -38 -28.5t-47 -10.5q-10 0 -25 3q-13 2 -31.5 6.5t-42.5 12.5
l-40 -184l-83 1l66 198q-26 5 -44.5 0.5t-30.5 -12.5q-14 -9 -23 -21q14 38 44.5 62t73.5 26l113 396h89q26 23 66 23q22 0 46 -6t44 -17h1q17 -8 37 -15.5t42 -7.5q29 0 55 11t45.5 30t31 43.5t11.5 51.5q10 -25 10 -51q0 -28 -11.5 -52.5t-31.5 -42.5t-47 -28.5t-57 -10.5
q-19 2 -42 6q-20 3 -46 8.5t-57 14.5l2 -258q16 -8 36.5 -11.5t39.5 -3.5q23 0 43.5 8.5t35.5 23t24 33.5t9 40q4 -8 5.5 -19t1.5 -20q0 -22 -9 -41t-24.5 -33.5t-36 -22.5t-44.5 -8q-20 -2 -41 0.5t-42 6.5v-231q35 -8 68.5 -18.5t70.5 -14.5zM301 213q28 0 50.5 13.5
t39.5 36.5l-75 316l-90 -338q2 -1 2 -2t2 -2q15 -8 33 -16t38 -8z" />
    <glyph glyph-name="ae" unicode="&#xe6;" horiz-adv-x="795" 
d="M423 250v-4q0 -31 7.5 -67.5t24 -68.5t43.5 -54t65 -23q39 0 68 26.5t47 66.5q8 17 12 34h76q-3 -9 -6.5 -17.5t-7.5 -16.5q-13 -27 -32.5 -50t-44 -40t-53 -27t-59.5 -10h-1q-42 0 -77.5 17t-67.5 47v-62h-74v32q-23 -11 -48.5 -17.5t-52.5 -6.5q-48 0 -90.5 19t-74 52
t-49.5 77t-18 94t18 94t49.5 77t74 52t90.5 19q54 0 101 -24v24v17h2q11 -13 29 -13q11 0 23 7q10 5 19 5q1 0 1 -1q13 0 22.5 -7.5t14.5 -18.5q-5 4 -10 7q-11 6 -27 3v-56q30 30 66 47.5t80 17.5q48 0 87.5 -21t68 -56t44 -80t16.5 -94h-77h-279zM563 460
q-30 -3 -53 -17.5t-39.5 -37t-27 -50.5t-16.5 -57l270 3q-5 28 -15 55t-26 48.5t-39 36.5t-54 19zM343 402q-20 29 -47 40.5t-59 11.5q-30 0 -56.5 -17t-46 -45.5t-30.5 -66t-11 -77.5q0 -41 11 -78t30.5 -66t46 -46t56.5 -17q32 0 59 10.5t47 40.5v310z" />
    <glyph glyph-name="bracketleft" unicode="[" horiz-adv-x="380" 
d="M226 47q17 0 32.5 8.5t27 23.5t18.5 34t7 40q5 -20 5 -40q0 -22 -7 -41t-18.5 -33.5t-27.5 -22.5t-34 -8q-22 0 -44 8.5t-43.5 14.5t-42.5 4t-40 -23v293.5v197.5v120v62v23.5v3.5q17 -19 39.5 -23.5t46.5 3.5q20 8 36 13t27 7q12 3 21 3q18 0 34 -8t27.5 -22.5
t18.5 -33.5t7 -40q0 -22 -5 -40q0 21 -7 40t-18.5 34t-27 23.5t-32.5 8.5q-12 0 -23 -4.5t-23 -10t-27.5 -10.5t-36.5 -5v-570q21 0 35 -4.5t25.5 -9.5l23 -10t26.5 -6z" />
    <glyph glyph-name="bracketright" unicode="]" horiz-adv-x="417" 
d="M177 678q-17 0 -32.5 -8.5t-27 -23.5t-18.5 -34t-7 -40q-5 20 -5 40q0 22 7 41t18.5 33t27.5 22.5t34 8.5q22 0 44 -8.5t43.5 -14.5t42 -4t40.5 23v-293.5v-197.5v-120v-62v-23.5v-3.5q-17 19 -39.5 23.5t-46.5 -3.5q-21 -8 -36.5 -13t-26.5 -7q-12 -3 -21 -3
q-18 0 -34 8t-27.5 22.5t-18.5 33.5t-7 40q0 22 5 40q0 -21 7 -40t18.5 -34t27 -23.5t32.5 -8.5q12 0 23 4.5t23 10t27.5 10.5t36.5 5v570q-21 0 -35 4.5t-25.5 9.5l-23 10t-26.5 6z" />
    <glyph glyph-name="A" unicode="A" horiz-adv-x="636" 
d="M341 700l239 -698h-86l-82 260q-9 -20 -22.5 -37.5t-30.5 -31.5t-37 -22t-41 -8q-12 1 -28 4q-14 2 -34 7t-47 13l-40 -187l-88 1l65 203q-28 5 -48 -0.5t-33 -13.5q-16 -10 -26 -23q15 42 49.5 69.5t79.5 27.5l125 436h85zM276 220q38 0 67 24t48 59l-99 320l-99 -372
q20 -10 38.5 -20t44.5 -11z" />
    <glyph glyph-name="B" unicode="B" horiz-adv-x="533" 
d="M327 376q39 -9 72 -27t56.5 -42.5t37 -54t13.5 -61.5q0 -40 -20.5 -75.5t-55.5 -61.5t-82 -41.5t-101 -15.5q-55 0 -101 15h-12q-12 -5 -22 -5q-3 0 -7 1t-9.5 1.5t-12.5 2.5q-3 1 -6.5 2t-7.5 2q-1 1 -2 1q-11 3 -18.5 1.5t-12.5 -3.5q-6 -3 -11 -7q5 12 15.5 20t24.5 8
h2v659h67q42 14 90 14t90.5 -14t74 -38t50 -56t18.5 -68q0 -52 -36 -93.5t-94 -63.5zM155 400q17 -8 35.5 -10.5t38.5 -2.5q30 0 56 12.5t45.5 33t31 47.5t11.5 56t-11.5 56t-31 47.5t-45.5 33t-56 12.5q-20 0 -38.5 -2.5t-35.5 -10.5v-272zM253 28q33 0 62 13.5t51 36.5
t34.5 53t12.5 63q0 32 -12.5 62t-34 52.5t-50 36.5t-61.5 14q-8 -1 -15.5 -1h-15.5h-3q-18 -2 -35 -7t-31 -14v-271v-14q1 0 1 -0.5t1 -0.5q20 -13 44.5 -18t51.5 -5z" />
    <glyph glyph-name="C" unicode="C" horiz-adv-x="540" 
d="M355 49q38 0 72.5 10.5t60.5 41.5v-71q-59 -28 -125 -28q-67 0 -123.5 27t-98 74t-65 110t-23.5 135t23.5 135t65 110.5t98 74.5t123.5 27q66 0 125 -28v-83q-26 31 -60.5 42.5t-72.5 11.5q-41 0 -79.5 -24.5t-68 -65t-47.5 -94t-18 -111.5t18 -111t47.5 -93.5t68 -65
t79.5 -24.5z" />
    <glyph glyph-name="multiply" unicode="&#xd7;" horiz-adv-x="556" 
d="M401 442l37 -37l-130 -129l130 -130l-37 -37l-130 129l-130 -129l-37 37l130 130l-130 129l37 37l130 -129l130 129v0z" />
  </font>
</defs>
</svg>
